<svg xmlns="http://www.w3.org/2000/svg" viewBox="0 0 30 30">
  <path d="M156.076923,10.9230769 L156.076923,11.3846154 C156.076923,16.6146154 152,22.7684615 144.692308,22.7684615 C142.461538,22.7684615 140.307692,22.3076923 138.538462,21.1538462 L139.461538,21.1538462 C141.230769,21.1538462 143.076923,20.3846154 144.384615,19.2307692 C142.615385,19.2307692 141.076923,18 140.615385,16.3846154 C140.923077,16.3846154 141.076923,16.5384615 141.384615,16.5384615 C141.692308,16.5384615 142.153846,16.5384615 142.461538,16.3846154 C140.692308,16.0769231 139.307692,14.4615385 139.307692,12.4615385 C139.923077,12.9230769 140.538462,13.0769231 141.230769,13.0769231 C140.153846,12.3076923 139.461538,11.1538462 139.461538,9.76923077 C139.461538,9 139.615385,8.38461538 140.076923,7.84615385 C142,10.2307692 144.846154,11.7692308 148.153846,11.9230769 C148.153846,11.6153846 148,11.3076923 148,11 C148,8.76923077 149.769231,6.92307692 152.076923,6.92307692 C153.307692,6.92307692 154.307692,7.38461538 155.076923,8.15384615 C156,8 156.846154,7.69230769 157.615385,7.23076923 C157.307692,8.15384615 156.692308,8.84615385 155.846154,9.46153846 C156.615385,9.30769231 157.461538,9.15384615 158.076923,8.84615385 C157.615385,9.61538462 156.846154,10.3846154 156.076923,10.9230769 M148,0 C139.769231,0 133,6.76923077 133,15 C133,23.2307692 139.769231,30 148,30 C156.230769,30 163,23.2307692 163,15 C163,6.76923077 156.230769,0 148,0" transform="translate(-133)"/>
</svg>
