<svg xmlns="http://www.w3.org/2000/svg" viewBox="0 0 17 16">
  <path fill="#3F474E" fill-rule="evenodd" d="M1164.86238,11.8954076 L1168.48019,15.5132228 C1169.0485,16.0815299 1170.00443,16.0815299 1170.57377,15.5132228 C1171.14208,14.9449157 1171.14208,13.9889856 1170.57377,13.4196448 L1166.95595,9.80182965 C1168.45497,7.34688362 1168.14508,4.11669148 1166.02525,2.02301015 C1163.54404,-0.458190882 1159.5385,-0.458190882 1157.05849,2.02301015 C1154.57729,4.50421117 1154.57729,8.50975279 1157.05849,10.9897651 C1159.20355,13.0843535 1162.43379,13.3942426 1164.86238,11.8952293 L1164.86238,11.8954076 Z M1158.91882,3.83310645 C1160.36636,2.38556691 1162.74363,2.38556691 1164.18998,3.83310645 C1165.63752,5.280646 1165.63752,7.65791236 1164.18998,9.10426319 C1162.74244,10.5518027 1160.36517,10.5518027 1158.91882,9.10426319 C1157.47229,7.65773147 1157.47229,5.30581565 1158.91882,3.83310645 Z" transform="translate(-1154.902)"/>
</svg>
