<svg xmlns="http://www.w3.org/2000/svg" viewBox="0 0 30 30">
  <path d="M197.374865,22.5001798 L197.374865,16.875045 C197.374865,15.1564336 196.979286,13.7891683 196.188487,12.7736089 C195.397329,11.7580494 194.332862,11.2502697 192.995085,11.2502697 C192.252835,11.2502697 191.608401,11.4527343 191.061423,11.8580231 C190.514445,12.2633118 190.118866,12.8128072 189.875045,13.5061495 L189.743065,11.8799597 L186.022464,11.8799597 L186.124955,14.37031 L186.124955,22.5001798 L189.875045,22.5001798 L189.875045,16.875045 C189.875045,16.1036657 190.038671,15.493395 190.365923,15.0442329 C190.692815,14.5950708 191.144494,14.37031 191.720601,14.37031 C192.335907,14.37031 192.807005,14.5605476 193.134257,14.9413824 C193.461149,15.3225768 193.624775,15.9670111 193.624775,16.875045 L193.624775,22.5001798 L197.374865,22.5001798 Z M179.87013,22.5001798 L183.62022,22.5001798 L183.62022,11.8799597 L179.87013,11.8799597 L179.87013,22.5001798 Z M181.745175,10.0049148 C182.496775,10.0049148 183.102371,9.79489823 183.561602,9.37522476 C184.020115,8.95519168 184.24991,8.43266764 184.24991,7.80765266 C184.230131,7.172928 183.99602,6.65040397 183.546858,6.24044017 C183.097696,5.83011676 182.496775,5.62513486 181.745175,5.62513486 C181.002925,5.62513486 180.402364,5.83011676 179.943133,6.24044017 C179.484261,6.65040397 179.254825,7.172928 179.254825,7.80765266 C179.254825,8.43266764 179.481743,8.95519168 179.93594,9.37522476 C180.390137,9.79489823 180.983506,10.0049148 181.715687,10.0049148 L181.745175,10.0049148 Z M182.162331,1.18673731 C184.013282,0.395579104 185.958812,0 188,0 C190.040829,0 191.986718,0.395579104 193.837309,1.18673731 C195.6879,1.9775359 197.282084,3.04236293 198.62022,4.38013953 C199.957997,5.71791614 201.022464,7.31209993 201.813622,9.1626909 C202.604421,11.0136415 203,12.9591714 203,15.0003596 C203,17.0411882 202.604421,18.9870777 201.813622,20.8373091 C201.022464,22.6882597 199.957997,24.2824435 198.62022,25.6202201 C197.282084,26.9583563 195.6879,28.0224641 193.837309,28.8136223 C191.986718,29.6047805 190.040829,30 188,30 C185.958812,30 184.013282,29.6047805 182.162331,28.8136223 C180.31174,28.0224641 178.717557,26.9583563 177.37978,25.6202201 C176.042003,24.2824435 174.977536,22.6882597 174.186737,20.8373091 C173.395219,18.9870777 173,17.0411882 173,15.0003596 C173,12.9591714 173.395219,11.0136415 174.186737,9.1626909 C174.977536,7.31209993 176.042003,5.71791614 177.37978,4.38013953 C178.717557,3.04236293 180.31174,1.9775359 182.162331,1.18673731 Z" transform="translate(-173)"/>
</svg>
