<svg xmlns="http://www.w3.org/2000/svg" viewBox="0 0 30 30">
  <path d="M236.375,20.69875 L236.375,11.73375 L227,18.75 L217.625,11.73375 L217.625,20.69875 C217.625,21.03125 217.74,21.30875 217.96875,21.53375 C218.19875,21.75875 218.48,21.87 218.81125,21.87 L235.18875,21.87 C235.52,21.87 235.80125,21.75875 236.03125,21.53375 C236.26,21.30875 236.375,21.03125 236.375,20.69875 Z M227,16.31875 L236.375,9.3025 C236.375,8.97 236.26,8.6925 236.03125,8.4675 C235.80125,8.2425 235.52,8.13 235.18875,8.13 L218.81125,8.13 C218.48,8.13 218.19875,8.2425 217.96875,8.4675 C217.74,8.6925 217.625,8.97 217.625,9.3025 L227,16.31875 Z M227,0 C229.03125,0 230.9725,0.39875 232.8225,1.19375 C234.67375,1.99 236.2675,3.0575 237.605,4.395 C238.94375,5.7325 240.01,7.3275 240.80625,9.1775 C241.6025,11.02875 242,12.96875 242,15 C242,17.04125 241.6025,18.9875 240.80625,20.8375 C240.01,22.68875 238.94375,24.2825 237.605,25.62125 C236.2675,26.95875 234.67375,28.0225 232.8225,28.81375 C230.9725,29.605 229.03125,30 227,30 C224.95875,30 223.01375,29.605 221.1625,28.81375 C219.3125,28.0225 217.7175,26.95875 216.38,25.62125 C215.0425,24.2825 213.9775,22.68875 213.18625,20.8375 C212.395,18.9875 212,17.04125 212,15 C212,12.96875 212.395,11.02875 213.18625,9.1775 C213.9775,7.3275 215.0425,5.7325 216.38,4.395 C217.7175,3.0575 219.3125,1.99 221.1625,1.19375 C223.01375,0.39875 224.95875,0 227,0 Z" transform="translate(-212)"/>
</svg>
