<svg xmlns="http://www.w3.org/2000/svg" viewBox="0 0 21 21">
  <path d="M163.558545,21.8021956 L163.558545,14.1903295 C163.558545,13.3783971 163.779815,12.750841 164.222355,12.3127358 C164.663218,11.8729391 165.218069,11.6530408 165.886908,11.6530408 C166.560775,11.6530408 167.108921,11.8966205 167.531345,12.3820884 C167.953769,12.8675563 168.164981,13.6118276 168.164981,14.616594 L168.164981,21.8021956 L172.359051,21.8021956 L172.359051,14.1903295 C172.359051,12.326268 171.898072,10.8749389 170.974438,9.83465051 C170.050804,8.79436214 168.835496,8.27337219 167.330191,8.27337219 C166.530602,8.27337219 165.814827,8.47466376 165.179515,8.8772469 C164.544202,9.28152157 164.004437,9.82280983 163.558545,10.5028032 L163.42109,8.68948754 L159.295748,8.68948754 L159.364476,11.6530408 L159.364476,21.8021956 L163.558545,21.8021956 Z M152.666033,21.8021956 L156.850045,21.8021956 L156.850045,8.68948754 L152.666033,8.68948754 L152.666033,21.8021956 Z M154.737924,6.57846333 L154.709427,6.57846333 C153.981918,6.57846333 153.390189,6.35518193 152.930887,5.90861911 C152.47326,5.46374783 152.243609,4.91061889 152.243609,4.2492323 C152.243609,3.58277113 152.478289,3.02795066 152.945973,2.58984548 C153.413657,2.15004877 154.025502,1.93015042 154.778155,1.93015042 C155.517397,1.93015042 156.115832,2.15004877 156.570105,2.58984548 C157.026055,3.02795066 157.259059,3.58277113 157.27247,4.2492323 C157.27247,4.91738499 157.039466,5.47220546 156.575134,5.91369369 C156.110803,6.35687345 155.497282,6.57846333 154.737924,6.57846333 Z" transform="translate(-151.989 -1)"/>
</svg>
