<svg xmlns="http://www.w3.org/2000/svg" viewBox="0 0 41 54">
  <g fill="none" fill-rule="evenodd" transform="translate(.304 .822)">
    <path fill="#FFF" d="M1.86451393,51.0374355 L1.86451393,5.71595707 L16.2132271,5.71595707 L16.2649393,5.46026872 C16.6513447,3.5569706 18.268789,2.17941369 20.1117562,2.17941369 C21.9575963,2.17941369 23.5750405,3.5569706 23.961446,5.45595936 L24.0131582,5.71595707 L38.3561256,5.71595707 L38.3561256,51.0374355 L1.86451393,51.0374355 Z"/>
    <path fill="#42A76E" d="M36.9201051,49.6009841 L3.30139628,49.6009841 L3.30139628,7.15240848 L10.8973513,7.15240848 L10.8973513,14.0272649 L29.32415,14.0272649 L29.32415,7.15240848 L36.9201051,7.15240848 L36.9201051,49.6009841 Z M17.3915482,7.15240848 L17.6745291,5.74037674 C17.9244716,4.50215562 18.9386063,3.6158651 20.1121871,3.6158651 C21.2857679,3.6158651 22.3013391,4.50215562 22.5527181,5.74037674 L22.8342626,7.15240848 L26.0303669,7.15240848 L26.0303669,10.4562467 L14.1968802,10.4562467 L14.1968802,7.15240848 L17.3915482,7.15240848 Z M40.2210704,3.58139027 L25.3250693,3.58139027 C24.3626469,1.40229348 22.3300681,0.0161178699 20.0992591,0.0161178699 C17.86845,0.0161178699 15.8358713,1.40229348 14.8734488,3.58139027 L0.000430935423,3.58139027 L0.000430935423,53.1648201 L40.2210704,53.1648201 L40.2210704,3.58139027 Z"/>
    <path fill="#42A76E" d="M13.1346244,28.2350622 C15.0278674,30.3523916 17.788727,33.5800979 17.788727,33.5800979 C17.788727,33.5800979 24.1421516,23.8538854 30.1522643,19.1710538 L30.6148016,20.804299 C28.429959,22.6041727 21.8294648,32.4625387 19.2424158,41.1932904 C19.2424158,41.1932904 12.3546313,32.349059 11.0417147,30.3351541 L13.1346244,28.2350622 Z"/>
  </g>
</svg>
