<svg xmlns="http://www.w3.org/2000/svg" viewBox="0 0 53 49">
  <g fill="none" fill-rule="evenodd" transform="translate(.181 .178)">
    <path fill="#FFF" d="M26.1801452,5.60732849 C43.255071,-6.18859721 56.4512514,14.0114966 48.6158955,24.9957761 C47.5930893,26.4290246 47.4070045,28.4244866 46.3894773,30.0227039 C44.8268932,32.4734797 42.3404842,34.5441675 39.9556959,36.5383098 C33.561507,41.8859369 27.0353432,47.1794542 27.0353432,47.1794542 C27.0353432,47.1794542 16.065581,38.3028156 7.04376982,29.2810044 C-6.81360542,15.4223094 8.11540684,-7.01344098 26.1801452,5.60732849"/>
    <path fill="#42A76E" d="M26.4153246,48.510818 C25.6089573,48.537213 24.9451231,48.378843 24.6217843,48.2811815 C22.9839745,47.792874 21.920256,46.7040803 21.2854563,44.863029 C19.8522077,44.6267937 18.5601725,43.8745362 17.8039557,43.2238994 C16.9830712,42.5151937 16.3245159,41.3749297 16.0434092,40.1950731 C14.9189822,40.0578191 13.8750599,39.5840289 13.0766111,38.8449689 C12.2821216,38.1586989 11.6697576,37.0949803 11.4110866,35.9599953 C10.3684841,35.8055846 9.35095681,35.3291548 8.5142353,34.5966935 C7.32778003,33.5567305 6.59927801,32.0957672 6.49897701,30.566177 C3.83044247,28.1048432 1.76635343,24.8226249 0.824051914,21.5390868 C-0.805839364,15.8694407 -0.0153091003,10.8675881 3.17320696,6.67078306 C6.06741876,2.83294999 10.5268541,0.540544202 15.4086094,0.383493949 C18.2236362,0.293750947 21.0545,0.936469209 23.5963386,2.24302173 C24.3340788,2.62178999 25.4862206,3.40440175 26.1394969,3.85971551 C28.1719119,2.17043548 30.6767974,1.05260721 33.5894857,0.532625702 C34.300831,0.4191272 35.0148158,0.350500198 35.715603,0.328064448 C39.3290786,0.210606696 42.7749459,1.27696471 45.6810354,3.41364 C49.2166458,6.00826855 51.611992,9.96619887 52.2481116,14.2712234 C52.9317421,18.739897 51.664782,23.4632823 48.7705702,27.2562439 C48.9526957,28.0929654 49.1071065,29.8125997 47.82167,31.2603655 C46.9585535,32.2330213 45.7866154,32.830868 44.4167149,33.0037553 C44.4061569,34.2311228 43.9323667,35.4703681 43.1325981,36.3110488 C42.3882591,37.0923408 41.1872866,37.6519148 39.9942326,37.7970873 C39.9388031,39.2144989 39.2987243,40.4550639 38.1637393,41.3260989 C37.5249803,41.8539989 36.5945565,42.1694192 35.5585528,42.2024129 C35.1071983,42.2169302 34.6413265,42.1760179 34.1939312,42.0849552 C33.361169,43.4654137 31.835538,45.0675902 30.3006687,46.59982 C30.0670729,46.8334158 29.9271794,46.9733093 29.8493142,47.0577733 C28.8832572,47.97236 27.7034006,48.4699058 26.4153246,48.510818 Z M24.1110411,43.8085487 C24.5069661,45.0082015 25.0058316,45.2523552 25.4835811,45.396208 C25.5522081,45.417324 25.8900641,45.5149855 26.3203026,45.501788 C26.8627199,45.4846312 27.3312311,45.2932675 27.7139586,44.931656 C27.7271561,44.9118597 27.9224791,44.715217 28.1732316,44.4657842 C31.1202334,41.5227417 31.7167605,40.4590231 31.835538,40.1330449 C31.7682307,39.7912296 31.5702682,38.9941006 31.1255124,38.4846771 C30.8892772,38.2141284 30.2505182,37.8327206 29.7146997,37.8511971 C29.5827247,37.8551563 29.4665867,37.8855106 29.3676054,37.9422599 L24.1110411,43.8085487 Z M18.9349815,39.2989629 C19.027364,39.8994491 19.3784175,40.6055154 19.7651042,40.9394122 C20.2138193,41.3274187 21.0479013,41.7668954 21.7948798,41.8856729 L27.0197701,36.0800926 C27.0738799,35.4413336 26.9986541,34.657402 26.6330834,34.2522388 C26.2886286,33.8721508 25.7422521,33.6900253 25.0084711,33.712461 C24.7841136,33.7190598 24.5821918,33.7454548 24.4264613,33.7731695 L18.9349815,39.2989629 Z M34.6848783,39.1010004 C34.9171543,39.1577496 35.1850635,39.1867841 35.4476938,39.1775459 C35.8964088,39.1617089 36.180155,39.0548091 36.285735,38.9677056 C37.1501713,38.3051911 37.0129173,37.3668488 36.8796225,36.9115351 L26.4245629,26.8682374 C25.8267161,26.2928264 25.8082396,25.3386471 26.3836506,24.7394806 C26.6515599,24.4623331 27.0184504,24.3026434 27.4196544,24.2894459 C27.8287769,24.2762484 28.2260216,24.4253801 28.5097679,24.6998881 C28.5097679,24.6998881 39.0255361,34.7906968 39.0268558,34.7906968 C39.0479718,34.7906968 39.2155801,34.8342485 39.4544548,34.82633 C40.0800163,34.8065338 40.7227346,34.4699975 40.9470921,34.2377215 C41.3443369,33.8206805 41.5686944,32.8480248 41.2625124,32.382153 L30.9579042,22.6516361 C30.6662394,22.3744886 30.4999509,22.0023191 30.4893929,21.5997953 C30.4801547,21.1972716 30.6253272,20.8158638 30.9011549,20.524199 C31.1717037,20.2417725 31.5425534,20.0794433 31.946397,20.064926 C32.3515602,20.0530483 32.7461655,20.1982208 33.0272722,20.46613 L43.1339179,30.0263992 C43.2949274,30.0395967 43.4889307,30.054114 43.6961314,30.0475152 C44.5011789,30.0198005 45.1320194,29.7571702 45.5662172,29.2635837 C45.9911767,28.7858342 45.8842769,28.1088024 45.8050919,27.8065797 L31.735237,14.3913207 C30.5989322,15.5804155 27.9422754,18.35453 26.8191681,19.4723583 C25.2077533,21.0745348 23.1674198,21.9944006 21.0769358,22.0617078 C19.3243077,22.1184571 17.691777,21.5773596 16.3535504,20.4951645 C15.2832332,19.6333678 14.7262987,18.6066023 14.6972642,17.441263 C14.6510729,15.535544 16.1133559,14.1775212 16.2809642,14.0310289 L23.9553106,6.01090805 C23.2043728,5.49884504 22.5840903,5.10819903 22.2185195,4.91947478 C20.130675,3.84783776 17.8105545,3.31993775 15.5049512,3.39384375 C11.5364629,3.5218595 7.91506879,5.38006754 5.56855325,8.49203809 C2.9475297,11.9405449 2.34044469,15.9354282 3.71430446,20.7142431 C4.42564973,23.2046113 5.9631585,25.7570079 7.95334154,27.7762254 L12.3863819,23.1966928 L12.4946014,23.1003511 C13.2970094,22.4378366 14.4240759,22.0221153 15.5036314,21.9864821 C16.4921242,21.9548081 17.9332912,22.2147988 19.1923327,23.6295709 C19.903678,24.4293394 20.3273178,25.3201706 20.4553335,26.2862276 C20.558274,26.2756696 20.6612145,26.2703906 20.7615155,26.2677511 C21.883303,26.2307981 22.9008303,26.6056072 23.7058778,27.3539054 C24.8540603,28.4136647 25.2209508,29.700421 25.3067346,30.703431 C26.7663781,30.740384 27.9897864,31.268284 28.8674202,32.2369805 C29.4797842,32.9192913 29.8559129,33.7956053 29.9892077,34.8461263 C31.4079389,34.9279508 32.6986545,35.7118823 33.3915232,36.5037323 C34.1121067,37.3285761 34.4895552,38.3355454 34.6848783,39.1010004 Z M14.3092576,35.0427691 C14.3858031,35.6419356 14.6906654,36.2635378 15.0813114,36.5987543 C15.5234277,37.0078768 16.1305127,37.2309146 16.7600334,37.2203566 L22.289786,31.6562905 C22.3597328,31.1798607 22.384808,30.2309605 21.661585,29.5592077 C21.445146,29.3599255 21.1851553,29.2701824 20.8407005,29.28338 C20.2270168,29.3018565 19.6225712,29.626515 19.4510037,29.7281357 L14.3092576,35.0427691 Z M9.51460582,30.4856722 C9.59247107,31.1864595 9.94220482,31.8502937 10.4925406,32.3306828 C10.9650111,32.7450843 11.5443814,32.9826393 12.0999961,32.9971565 L17.3789962,27.5584667 C17.470059,27.3486264 17.749846,26.5382999 16.9421589,25.6263526 C16.5515129,25.1868759 16.1133559,24.9796751 15.6052522,24.9981516 C15.0826312,25.0139886 14.6114804,25.2673806 14.4346339,25.3993556 L9.51460582,30.4856722 Z M31.6428544,10.7606884 C32.0440585,10.7488106 32.426786,10.8966226 32.7184507,11.1711306 L46.9044437,24.6946091 C48.924981,21.6948173 49.7880975,18.085301 49.273395,14.7199384 C48.7534135,11.2001651 46.7949045,7.96149858 43.8993729,5.83670104 C41.5436191,4.10650876 38.7391503,3.24075275 35.789509,3.3370945 C35.2220165,3.35425125 34.649245,3.408361 34.0883512,3.49942375 C31.3353527,3.99169051 29.0535049,5.12139653 27.3140744,6.85554806 L18.367489,16.1927795 C18.0322725,16.5081997 17.691777,17.0017862 17.702335,17.3686767 C17.712893,17.6643007 18.003238,17.9612445 18.2434325,18.1565675 C19.0075677,18.7742105 19.9525087,19.0856715 20.9766348,19.051358 C22.3069428,19.009126 23.6280126,18.4007213 24.6956903,17.335683 C26.1434561,15.899795 30.1317407,11.7122281 30.5817754,11.2410774 C30.8668414,10.9401744 31.2376912,10.7725661 31.6375754,10.7606884 L31.6428544,10.7606884 Z"/>
  </g>
</svg>
