<svg xmlns="http://www.w3.org/2000/svg" viewBox="0 0 18 23">
  <path d="M123.366698,0.84435033 C124.506534,0.84435033 125.566351,1.03993788 126.549704,1.43290736 C127.533057,1.82587684 128.354593,2.34983615 129.014311,3.00478528 C129.674029,3.65973441 130.191489,4.41516889 130.566693,5.27108872 C130.941896,6.12521416 131.128609,7.00984409 131.128609,7.91959535 C131.128609,9.52556651 130.854764,10.9718377 130.305295,12.2566147 C129.757605,13.543186 128.978746,14.555217 127.972276,15.2909133 C126.964028,16.0266096 125.818857,16.3944577 124.533207,16.3944577 C123.880602,16.3944577 123.270674,16.2473184 122.705202,15.9530399 C122.139729,15.6587614 121.744965,15.3016796 121.522688,14.88 C121.056796,16.7730721 120.768725,17.9017379 120.658476,18.2659973 C120.505549,18.8473768 120.242373,19.4754102 119.870726,20.1483031 C119.499079,20.8211961 119.202117,21.3110621 118.97984,21.6196957 C118.757563,21.9283293 118.585076,22.1562157 118.458823,22.3033549 C118.403698,22.3661583 118.343239,22.3894852 118.277445,22.3715414 C118.211651,22.3535976 118.170752,22.3141212 118.156526,22.2513179 C118.156526,22.2441404 118.144079,22.1454494 118.120962,21.9570394 C118.096067,21.766835 118.07295,21.569453 118.05339,21.3630992 C118.032051,21.154951 118.014269,20.8857938 118.000043,20.5520389 C117.987596,20.2200784 117.982261,19.8988842 117.985818,19.5902506 C117.989374,19.281617 118.007156,18.942479 118.04272,18.5710421 C118.076507,18.1996052 118.133409,17.855084 118.209873,17.5410673 L119.762255,10.8121378 C119.518639,10.2792066 119.397721,9.62425748 119.397721,8.84549604 C119.397721,7.92677287 119.623554,7.16416087 120.073443,6.55945441 C120.525109,5.95295357 121.081691,5.64970315 121.741409,5.64970315 C122.276652,5.64970315 122.685641,5.82196374 122.970156,6.17007369 C123.256449,6.51638926 123.398706,6.95960141 123.398706,7.49971015 C123.398706,7.82987629 123.336468,8.23181768 123.21555,8.70912307 C123.094631,9.18463409 122.934592,9.74089225 122.73721,10.3761032 C122.538049,11.0095198 122.394014,11.5119465 122.303325,11.8833834 C122.157511,12.5365381 122.285543,13.0981795 122.683863,13.5718961 C123.083962,14.0438183 123.610313,14.2806767 124.262919,14.2806767 C125.020438,14.2806767 125.69616,13.9792206 126.290084,13.3763085 C126.884008,12.7733965 127.339232,11.9748968 127.65931,10.9790153 C127.979389,9.98492809 128.139429,8.89035557 128.139429,7.69888646 C128.139429,6.29747476 127.691318,5.15624832 126.795098,4.27700154 C125.898877,3.39775476 124.652348,2.95813137 123.053732,2.95813137 C122.150398,2.95813137 121.314637,3.11962567 120.542892,3.44081991 C119.772924,3.76380852 119.130988,4.19804877 118.620641,4.74533503 C118.110293,5.29262129 117.711972,5.92065471 117.427458,6.63302404 C117.142943,7.34359899 117.000686,8.08826718 117.000686,8.86702862 C117.000686,9.83420008 117.270975,10.6506435 117.813331,11.3163589 C117.92358,11.4563207 117.991152,11.5657779 118.010713,11.6429363 C118.032051,11.7200947 118.024938,11.8349351 117.991152,11.9892519 C117.969814,12.1005035 117.886237,12.4306697 117.740424,12.9779559 C117.704859,13.1394502 117.631953,13.2471131 117.521703,13.3027389 C117.409676,13.3601591 117.278088,13.3601591 117.125161,13.3027389 C116.305404,12.9528346 115.684807,12.3535113 115.259813,11.504769 C114.836598,10.657821 114.62499,9.67988329 114.62499,8.5727501 C114.62499,7.85679201 114.738796,7.14083391 114.968186,6.42128706 C115.197576,5.70353458 115.55144,5.00731468 116.031559,4.33442174 C116.511677,3.66152879 117.087819,3.06758862 117.761762,2.55260122 C118.435706,2.03761382 119.255463,1.62490615 120.224591,1.31268382 C121.193718,1.00046149 122.241087,0.84435033 123.366698,0.84435033" transform="translate(-113.989)"/>
</svg>
