<svg xmlns="http://www.w3.org/2000/svg" viewBox="0 0 41.85 37.2"><title>icon_category_caregiving</title><g id="Layer_2" data-name="Layer 2"><g id="Icon_caregiving"><path d="M30.87,21.7a3.6,3.6,0,0,0,0,7.2h0a3.6,3.6,0,0,0,0-7.2h0" style="fill:#e28fb1"/><path d="M8.07,14.76a.83.83,0,0,1-.75-.47A5.31,5.31,0,0,1,8.66,8.35a5.67,5.67,0,0,1,4-1.76,5.49,5.49,0,0,1,2.35.54.84.84,0,1,1-.71,1.51,3.84,3.84,0,0,0-1.64-.38A4,4,0,0,0,9.85,9.52a3.7,3.7,0,0,0-1,4,.83.83,0,0,1-.39,1.12.82.82,0,0,1-.36.08M29.54,4a8.17,8.17,0,0,0-5.81,2.43L21,9.18,18.22,6.43a8.48,8.48,0,0,0-6-2.42,8.78,8.78,0,0,0-1.09.07A8.47,8.47,0,0,0,7.27,5.72a8.32,8.32,0,0,0-.83,12.48L20.79,32.55l.82-.8a2.43,2.43,0,0,1,0-2.32l.26-.47-.52-.15a2.44,2.44,0,0,1-1.74-2.36l0-2.45a2.43,2.43,0,0,1,1.75-2.31l.55-.15-.26-.47a2.41,2.41,0,0,1,.42-2.9l1.75-1.73a2.45,2.45,0,0,1,1.7-.69,2.42,2.42,0,0,1,1.2.32l.47.26.16-.53a2.4,2.4,0,0,1,2.32-1.74l2.47,0A2.42,2.42,0,0,1,34.5,15.9l.13.48.48-.26a2.42,2.42,0,0,1,1.16-.29,2.49,2.49,0,0,1,.77.14,8.42,8.42,0,0,0,.88-3.4A8.4,8.4,0,0,0,29.54,4" style="fill:#e28fb1"/><path d="M39.94,23.27l-1.7-.49A7.79,7.79,0,0,0,37.9,22l.87-1.53,0-.07a12.45,12.45,0,0,0,3.05-7.7A12.1,12.1,0,0,0,37,2.51,11.83,11.83,0,0,0,31.21.12,13.22,13.22,0,0,0,29.59,0a12.41,12.41,0,0,0-8.22,3.09l-.45.39-.44-.4A12.16,12.16,0,0,0,12.33,0a12.65,12.65,0,0,0-1.73.12A12.24,12.24,0,0,0,0,12.31,12.07,12.07,0,0,0,3.63,21L19.1,36.48a2.33,2.33,0,0,0,3.36,0l3.39-3.32h0l1.56-.86a7.69,7.69,0,0,0,.8.33l.48,1.72a.89.89,0,0,0,.85.64L32,35a.92.92,0,0,0,.85-.64l.5-1.71a7.72,7.72,0,0,0,.8-.32l1.55.88a.86.86,0,0,0,.42.11.9.9,0,0,0,.64-.26l1.75-1.73a.89.89,0,0,0,.15-1.05l-.84-1.55a8,8,0,0,0,.34-.81l1.71-.47a.89.89,0,0,0,.64-.85l0-2.46A.9.9,0,0,0,39.94,23.27ZM20.77,35.36,5,19.61A10.33,10.33,0,0,1,6,4.13a10.45,10.45,0,0,1,4.86-2A10.85,10.85,0,0,1,12.26,2a10.47,10.47,0,0,1,7.36,3L21,6.35,22.31,5a10.16,10.16,0,0,1,7.22-3,10.41,10.41,0,0,1,1.45.1,10.3,10.3,0,0,1,9,10.53,10.6,10.6,0,0,1-2.12,5.91l-.91-.92a.9.9,0,0,0-1.05-.15l-1.56.85a7.87,7.87,0,0,0-.8-.34L33,16.27a.9.9,0,0,0-.86-.67l-2.46,0a.9.9,0,0,0-.86.65l-.5,1.7a7.76,7.76,0,0,0-.8.33L26,17.39a.88.88,0,0,0-.43-.11.89.89,0,0,0-.63.25l-1.75,1.73A.9.9,0,0,0,23,20.32l.85,1.55a7.88,7.88,0,0,0-.35.81l-1.71.47a.89.89,0,0,0-.64.85l0,2.46a.9.9,0,0,0,.64.87l1.7.49a7.89,7.89,0,0,0,.33.81L23,30.18a.89.89,0,0,0,.14,1.06l.94.95Zm18-9.45-1.5.42a.9.9,0,0,0-.61.61,5.93,5.93,0,0,1-.58,1.37.89.89,0,0,0,0,.86l.75,1.37-.8.79-1.36-.76a.89.89,0,0,0-.87,0,6.1,6.1,0,0,1-1.39.56.9.9,0,0,0-.61.61l-.43,1.48H30.25l-.41-1.49a.9.9,0,0,0-.61-.61,6,6,0,0,1-1.38-.58.9.9,0,0,0-.43-.11.88.88,0,0,0-.43.11l-1.37.75-.79-.8.77-1.36a.89.89,0,0,0,0-.86A6,6,0,0,1,25,26.87a.89.89,0,0,0-.61-.61l-1.49-.44V24.68l1.5-.42a.9.9,0,0,0,.61-.61,6,6,0,0,1,.58-1.36.89.89,0,0,0,0-.88L24.91,20l.79-.78,1.36.76a.89.89,0,0,0,.87,0,6,6,0,0,1,1.38-.56.9.9,0,0,0,.62-.61l.44-1.5h1.12l.42,1.5a.9.9,0,0,0,.61.61,5.93,5.93,0,0,1,1.38.58.9.9,0,0,0,.43.11.87.87,0,0,0,.43-.11l1.37-.75.78.79-.76,1.35a.9.9,0,0,0-.09.67l.09.21a6,6,0,0,1,.57,1.37.9.9,0,0,0,.61.62l1.49.44Z" style="fill:#d35387"/></g></g></svg>