<svg xmlns="http://www.w3.org/2000/svg" viewBox="0 0 40.05 37.84"><title>icon_category_legal_choices</title><g id="Layer_2" data-name="Layer 2"><g id="Icon_legal_choices"><path d="M36.69,16.32H28.53a4.1,4.1,0,0,0,8.15,0" style="fill:#87bbe6"/><path d="M11.58,22.46H3.42a4.1,4.1,0,0,0,8.15,0" style="fill:#87bbe6"/><path d="M26.5,34h.34v0H13.47v0h.26c-2.81,0-5,1.39-5,2.93v.88H31.53V37C31.53,35.42,29.32,34,26.5,34Z" style="fill:#4797d9"/><path d="M40,15.53h0C37.33,9.73,34.17,2.74,33,1c-.17-.43-4.86.94-8.61,1.87A4.36,4.36,0,0,0,20,0c-2.56.17-4.18,1.88-4.6,5L7.24,7a1,1,0,0,0-.51.51S0,21.69,0,22.09a7.5,7.5,0,1,0,15,0l-.08-.34L8.69,8.37l7.16-1.79a4.55,4.55,0,0,0,3.41,2.64V30H16.79a3.34,3.34,0,0,0-3.18,2.86H26.68a3.31,3.31,0,0,0-3.24-2.77H21V9.22c2.47-.6,3.58-2.3,3.83-4.86l6.31-1.45-6,12.61-.08.34a7.5,7.5,0,0,0,15,0ZM12.52,20.66h0a5.37,5.37,0,0,1,.67,2.19h0v.06a1.64,1.64,0,0,1-.07.42l0,.06a5.73,5.73,0,0,1-11.22-.14h0l0-.21,0-.19h0a4,4,0,0,1,.33-1.62h0l.08-.17c.08-.18.15-.31.19-.4L7.5,9.82Zm7.59-13a3,3,0,0,1-3-3,3,3,0,0,1,3-3.07,3,3,0,0,1,3,3A3.09,3.09,0,0,1,20.11,7.69Zm18.07,9.8,0,0a5.85,5.85,0,0,1-5.6,4.23A5.71,5.71,0,0,1,27,17.29l0-.11c0-.1,0-.19,0-.28l0-.18h0a4.31,4.31,0,0,1,.75-2.44L32.56,3.59l5.06,10.77C38.49,15.93,38.5,16.5,38.18,17.49Z" style="fill:#4797d9"/></g></g></svg>