<svg xmlns="http://www.w3.org/2000/svg" viewBox="0 0 11 21">
  <path d="M3.19341019,20.7073295 L3.19341019,11.4005545 L0.678979933,11.4005545 L0.678979933,8.02088597 L3.19341019,8.02088597 L3.19341019,5.05733276 C3.19341019,4.44330889 3.29231111,3.86311554 3.48843667,3.31844423 C3.68456223,2.77208139 3.97958871,2.27984738 4.37183983,1.8417422 C4.76409095,1.40194549 5.29212131,1.05349117 5.95257832,0.79637925 C6.61471162,0.537575802 7.37071698,0.40901984 8.22227069,0.40901984 C8.6413424,0.40901984 9.06041411,0.425935098 9.47948582,0.458074089 C9.89855753,0.491904605 10.2120232,0.520660543 10.421559,0.547724956 L10.7367009,0.596779205 L10.5992454,3.7886884 L8.42845398,3.7886884 C7.83840101,3.7886884 7.44782618,3.92908504 7.25505319,4.20987833 C7.0622802,4.49067161 6.96505557,4.91524459 6.96505557,5.48359726 L6.96505557,8.02088597 L10.7367009,8.02088597 L10.4819053,11.4005545 L6.96505557,11.4005545 L6.96505557,20.7073295 L3.19341019,20.7073295 Z" transform="translate(.011)"/>
</svg>
