<svg width="19" height="18" viewBox="0 0 19 18" fill="none" xmlns="http://www.w3.org/2000/svg">
<path fill-rule="evenodd" clip-rule="evenodd" d="M13.1888 4.12608C12.8991 4.12595 12.4253 4.12608 12.1354 4.12608L6.87237 4.12557C6.58267 4.1257 6.34581 4.36256 6.34568 4.65226L6.34568 5.36964C6.34568 5.65922 6.58267 5.8962 6.87237 5.89633L10.7477 5.8962C11.0373 5.8962 11.1063 6.06382 10.9018 6.26826L4.50266 12.6675C4.29771 12.8724 4.29771 13.2074 4.50266 13.4123L5.14601 14.0557C5.35096 14.2606 5.68606 14.2608 5.89101 14.0558L12.2897 7.65712C12.4946 7.45217 12.6616 7.52154 12.6616 7.81112L12.6626 11.6866C12.6626 11.9762 12.8997 12.2133 13.1892 12.2132L13.9066 12.2132C14.1964 12.2132 14.4333 11.9763 14.4333 11.6865L14.4333 6.42289C14.4334 6.13319 14.4333 5.65935 14.4333 5.36952L14.4333 4.65213C14.4333 4.36256 14.1963 4.12558 13.9072 4.12608L13.1888 4.12608Z" fill="#B4BCC5"/>
</svg>
