<svg xmlns="http://www.w3.org/2000/svg" xmlns:xlink="http://www.w3.org/1999/xlink" viewBox="0 0 45 67.5" version="1.1" x="0px" y="0px"><title>download</title><desc>Created with Sketch.</desc><g stroke="none" stroke-width="1" fill="none" fill-rule="evenodd"><g transform="translate(-860.000000, -86.000000)" fill="#000000"><g transform="translate(860.000000, 86.000000)"><path d="M14.028607,47.2767676 C12.7486558,48.3371491 11.7110503,47.8534265 11.7110503,46.1920871 L11.7110503,15.6745247 C11.7110503,14.0150907 12.7447679,13.5262417 14.028607,14.5898441 L31.4386999,29.0133154 C32.7186512,30.0736968 32.7225391,31.7896939 31.4386999,32.8532964 L14.028607,47.2767676 Z" transform="translate(22.211050, 31.000000) rotate(-270.000000) translate(-22.211050, -31.000000) "/><rect transform="translate(22.500000, 50.500000) scale(-1, -1) translate(-22.500000, -50.500000) " x="0" y="47" width="45" height="7" rx="3.5"/><rect transform="translate(22.500000, 14.500000) scale(-1, -1) rotate(-270.000000) translate(-22.500000, -14.500000) " x="8" y="9" width="29" height="11" rx="5.5"/></g></g></g><text x="0" y="69" fill="#000000" font-size="5px" font-weight="bold" font-family="'Helvetica Neue', Helvetica, Arial-Unicode, Arial, Sans-serif">Created by Kevin</text><text x="0" y="74" fill="#000000" font-size="5px" font-weight="bold" font-family="'Helvetica Neue', Helvetica, Arial-Unicode, Arial, Sans-serif">from the Noun Project</text></svg>