<svg xmlns="http://www.w3.org/2000/svg" viewBox="0 0 30 30">
  <path d="M113.923077,8.23076923 L111.538462,8.23076923 C111.076923,8.23076923 110.461538,8.69230769 110.461538,9.15384615 L110.461538,11.5384615 L113.769231,11.5384615 C113.769231,13.3076923 113.461538,15 113.461538,15 L110.461538,15 L110.461538,25.5384615 L106.076923,25.5384615 L106.076923,15 L104,15 L104,11.3846154 L106.076923,11.3846154 L106.076923,8.53769231 C106.076923,8.07692308 105.923077,4.46153846 110.615385,4.46153846 L113.923077,4.46153846 L113.923077,8.23076923 Z M109,0 C100.769231,0 94,6.76923077 94,15 C94,23.2307692 100.769231,30 109,30 C117.230769,30 124,23.2307692 124,15 C124,6.76923077 117.230769,0 109,0 L109,0 Z" transform="translate(-94)"/>
</svg>
