<svg xmlns="http://www.w3.org/2000/svg" viewBox="0 0 41 32">
  <path fill="#ECA941" fill-rule="evenodd" d="M711.725,99.7986526 C711.725,102.698667 711.000007,104.873645 709.55,106.323653 C708.099993,107.77366 706.125013,108.498653 703.625,108.498653 C701.024987,108.498653 699.050007,107.598662 697.7,105.798653 C696.349993,103.998644 695.675,101.948664 695.675,99.6486526 C695.675,96.2486356 696.324994,93.2236658 697.625,90.5736526 C698.925006,87.9236393 700.474991,85.6736618 702.275,83.8236526 C704.075009,81.9736433 705.924991,80.5236578 707.825,79.4736526 C709.725009,78.4236473 711.274994,77.6986546 712.475,77.2986526 L714.725,82.5486526 C712.424989,83.6486581 710.425008,85.1736428 708.725,87.1236526 C707.024991,89.0736623 705.975002,91.3486396 705.575,93.9486526 C705.875002,93.8486521 706.324997,93.7986526 706.925,93.7986526 C708.425007,93.7986526 709.599996,94.3986466 710.45,95.5986526 C711.300004,96.7986586 711.725,98.1986446 711.725,99.7986526 Z M690.875,99.7986526 C690.875,102.698667 690.150007,104.873645 688.7,106.323653 C687.249993,107.77366 685.275013,108.498653 682.775,108.498653 C680.174987,108.498653 678.200007,107.598662 676.85,105.798653 C675.499993,103.998644 674.825,101.948664 674.825,99.6486526 C674.825,96.2486356 675.474993,93.2236658 676.775,90.5736526 C678.075006,87.9236393 679.624991,85.6736618 681.425,83.8236526 C683.225009,81.9736433 685.074991,80.5236578 686.975,79.4736526 C688.87501,78.4236473 690.424994,77.6986546 691.625,77.2986526 L693.875,82.5486526 C691.574989,83.6486581 689.575008,85.1736428 687.875,87.1236526 C686.174992,89.0736623 685.125002,91.3486396 684.725,93.9486526 C685.025002,93.8486521 685.474997,93.7986526 686.075,93.7986526 C687.575007,93.7986526 688.749996,94.3986466 689.6,95.5986526 C690.450004,96.7986586 690.875,98.1986446 690.875,99.7986526 Z" transform="translate(-674 -77)"/>
</svg>
