<svg xmlns="http://www.w3.org/2000/svg" viewBox="0 0 39.29 38.48"><title>icon_category_home_care</title><g id="Layer_2" data-name="Layer 2"><g id="icon_home_care"><path d="M19.65,4.44,6.88,14.88v20h6.17V23.27a2.72,2.72,0,0,1,2.71-2.72h7.74a2.72,2.72,0,0,1,2.71,2.72V34.85H32.4L32.48,15,19.65,4.44" style="fill:#f3c783"/><path d="M39,15.68,36,13.31V5a.91.91,0,0,0-.91-.91H31.86a.91.91,0,0,0-.91.92V9.06L20.23.21a.92.92,0,0,0-1.17,0L.33,15.68A.91.91,0,1,0,1.5,17.09l1.76-1.45V37.56a.91.91,0,0,0,.91.91H15.85a.84.84,0,0,0,.84-.84V24.19H22.6V37.64a.84.84,0,0,0,.84.84H35.12a.92.92,0,0,0,.92-.92V15.64l1.76,1.46A.91.91,0,0,0,39,15.68Zm-4.75,21H24.43V23.27a.92.92,0,0,0-.92-.92H15.77a.92.92,0,0,0-.92.92V36.65H5.08L5,14.16,19.65,2.1l14.55,12Z" style="fill:#eca941"/></g></g></svg>