<svg xmlns="http://www.w3.org/2000/svg" viewBox="0 0 23 21">
  <g fill="#3F474E" fill-rule="evenodd" transform="translate(.053 .703)">
    <path d="M16.3345412,0.165234077 L5.65617519,0.165234077 C5.24888142,0.165234077 4.91841327,0.494718549 4.91841327,0.902995994 L4.91841327,3.66394701 L2.70512752,3.66394701 C1.21135637,3.66394701 0,4.87530289 0,6.36907404 L0,13.2059137 C0,14.6996849 1.21135637,15.9110407 2.70512752,15.9110407 L4.67249263,15.9110407 L4.67249263,19.2626931 C4.67249263,19.6709706 5.00296079,20.000455 5.41025455,20.000455 L16.5804618,20.000455 C16.9877556,20.000455 17.3182237,19.6709706 17.3182237,19.2626931 L17.3182237,15.9139918 L19.2855888,15.9139918 C20.77936,15.9139918 21.9907159,14.7026359 21.9907159,13.2088648 L21.9907159,6.36931996 C21.9907159,4.87554881 20.77936,3.66419293 19.2855888,3.66419293 L17.0723031,3.66419293 L17.0723031,0.903241915 C17.0723031,0.49496447 16.7418349,0.165479998 16.3345412,0.165479998 L16.3345412,0.165234077 Z M6.3939371,1.64075791 L15.5967793,1.64075791 L15.5967793,3.66384864 L6.3939371,3.66384864 L6.3939371,1.64075791 Z M6.14801646,18.52862 L6.14801646,12.3997859 L15.8426999,12.3997859 L15.8426999,18.5246853 L6.14801646,18.52862 Z M20.5056011,6.36907404 L20.5056011,13.2059137 C20.5056011,13.5325209 20.3759173,13.8447418 20.1453766,14.0752924 C19.9148358,14.305843 19.6016706,14.4355169 19.2759979,14.4355169 L17.3086328,14.4355169 L17.3086328,12.399958 L18.3730019,12.399958 C18.7802957,12.399958 19.1107639,12.0694899 19.1107639,11.6621961 C19.1107639,11.2539186 18.7802957,10.9244342 18.3730019,10.9244342 L3.6177636,10.9244342 C3.21046984,10.9244342 2.88000169,11.2539186 2.88000169,11.6621961 C2.88000169,12.0694899 3.21046984,12.399958 3.6177636,12.399958 L4.67254182,12.399958 L4.67254182,14.4384188 L2.7051767,14.4384188 C2.02601768,14.4384188 1.47557351,13.8879746 1.47557351,13.2088156 L1.47557351,6.36927077 C1.47557351,5.69011174 2.02601768,5.13966758 2.7051767,5.13966758 L19.2760471,5.13966758 C19.6016952,5.13966758 19.9148752,5.26935137 20.1454258,5.49989213 C20.3759764,5.73043289 20.5056503,6.04359807 20.5056503,6.36927077 L20.5056011,6.36907404 Z"/>
    <path d="M15.7640053,7.68206892 L18.4691323,7.68206892 C18.8764261,7.68206892 19.2068942,7.35258445 19.2068942,6.944307 C19.2068942,6.53701324 18.8764261,6.20654508 18.4691323,6.20654508 L15.7640053,6.20654508 C15.3567115,6.20654508 15.0262434,6.53701324 15.0262434,6.944307 C15.0262434,7.35258445 15.3567115,7.68206892 15.7640053,7.68206892 Z"/>
  </g>
</svg>
