<svg xmlns="http://www.w3.org/2000/svg" viewBox="0 0 18 17">
  <path d="M892.981835,41 C892.735706,41 892.506687,40.8829061 892.337373,40.6702836 L886.640943,33.010704 C886.498719,32.8203596 886.440262,32.5767259 886.48054,32.3427164 C886.520463,32.1117366 886.649854,31.9130157 886.845011,31.7830896 C886.968699,31.6886303 887.147637,31.6308854 887.326753,31.6308854 C887.594269,31.6308854 887.851448,31.7606332 888.014524,31.9777114 L892.949755,38.6240814 L901.872772,24.4052838 C902.005906,24.1625413 902.293383,24 902.599752,24 C902.762115,24 902.91931,24.0445563 903.054404,24.129035 C903.234055,24.2274152 903.375209,24.4147298 903.432776,24.638224 C903.492303,24.8670651 903.455589,25.112481 903.332079,25.3110237 L893.726994,40.6292918 L893.7204,40.6374902 C893.53968,40.8640143 893.313156,40.9853855 893.058828,40.9959008 C893.029778,40.9994653 892.996806,41 892.981835,41" transform="translate(-886 -24)"/>
</svg>
