<svg xmlns="http://www.w3.org/2000/svg" viewBox="0 0 15 13">
  <path fill-rule="evenodd" d="M115.257794,489.040363 C115.028069,488.816792 114.652063,488.451374 114.422137,488.227803 L110.247255,484.167532 C110.017329,483.944156 109.641524,483.944156 109.411598,484.167532 L108.842487,484.720914 C108.612762,484.94429 108.612762,485.309903 108.842487,485.533474 L111.916968,488.522784 C112.146694,488.74616 112.068451,488.928675 111.744073,488.928675 L101.590923,488.928675 C101.265745,488.928675 101,489.187075 101,489.503265 L101,490.49581 C101,490.812001 101.265745,491.070596 101.590923,491.070596 L111.743273,491.070596 C112.068451,491.070596 112.145893,491.252916 111.916168,491.476292 L108.842487,494.466575 C108.612762,494.689951 108.612762,495.055759 108.842487,495.278941 L109.411598,495.832322 C109.641524,496.055893 110.017329,496.055893 110.247255,495.832322 L114.422938,491.772051 C114.652864,491.548675 115.028669,491.183062 115.258595,490.959491 L115.827706,490.40611 C116.057431,490.182734 116.057431,489.81712 115.827706,489.594523 L115.257794,489.040363 Z" transform="translate(-101 -483.188)"/>
</svg>
