<svg xmlns="http://www.w3.org/2000/svg" viewBox="0 0 20 21">
  <g transform="translate(.233 .802)">
    <path d="M9.79873135,17.8134371 L9.79873135,17.818367 C10.4408575,17.818367 11.0830562,17.820107 11.7251823,17.817932 C12.543304,17.8151046 13.3612081,17.8016197 14.1770817,17.7357906 C14.6363959,17.6986711 15.0867181,17.6137021 15.519274,17.4487667 C16.4018621,17.112226 17.0313705,16.5109187 17.401853,15.6421622 C17.631075,15.1047266 17.726143,14.5360438 17.7556569,13.9575011 C17.7868386,13.342999 17.8122916,12.7276268 17.8160625,12.1124721 C17.8249819,10.6326934 17.8217912,9.15284227 17.8192531,7.67299109 C17.8179479,6.9181307 17.7998915,6.1634878 17.7387608,5.41072987 C17.700545,4.93977586 17.6107706,4.47889923 17.4399963,4.03600236 C17.1106301,3.18225322 16.5263715,2.57007101 15.6891782,2.20351567 C15.1794657,1.98029101 14.6387164,1.87763232 14.0866547,1.84203527 C13.6100093,1.81129566 13.1322761,1.7922284 12.654688,1.78091855 C12.0924016,1.76765122 11.5298251,1.76330127 10.9673212,1.76380876 C9.32977259,1.76511375 7.69186143,1.74039156 6.05489298,1.80904819 C5.57549197,1.82913043 5.09746875,1.86052253 4.62836496,1.96934365 C4.22111703,2.06380995 3.82735701,2.19706325 3.47232035,2.42246289 C2.80865705,2.84375503 2.34709489,3.42512513 2.09655329,4.17353311 C1.93832413,4.6458646 1.85710659,5.13197092 1.83187114,5.62655963 C1.8025023,6.19966484 1.77581654,6.77349504 1.77262585,7.34718024 C1.76399649,8.88002824 1.76624447,10.4130212 1.76885504,11.9458692 C1.77001529,12.6907973 1.78850678,13.4355078 1.84920238,14.1782608 C1.8877082,14.6492148 1.97762761,15.110164 2.14898211,15.5528434 C2.47863829,16.404345 3.06180921,17.0153672 3.89740713,17.3809076 C4.45294959,17.6239245 5.04279195,17.7222333 5.64358417,17.7539879 C6.17033791,17.7819 6.6978168,17.8052447 7.22522318,17.8108996 C8.08293838,17.8201795 8.94087112,17.8134371 9.79873135,17.8134371 M0.00708713439,9.79105165 C0.00708713439,8.92012023 -0.00146971321,8.04897131 0.00998776069,7.17818489 C0.0178919674,6.58129998 0.0428373536,5.98412508 0.079820339,5.38832766 C0.126810485,4.63092979 0.284822103,3.89607914 0.582933972,3.19428807 C0.871328742,2.5155517 1.30025886,1.93961903 1.84448887,1.44546531 C2.45521574,0.890847369 3.17174295,0.535819385 3.96129343,0.317162167 C4.3311958,0.21472097 4.70747955,0.145266854 5.08912945,0.107712331 C5.91392254,0.0265133644 6.74190632,0.00904108666 7.56974507,0.00570612908 C9.00671534,-2.12980574e-05 10.4438306,-0.0031387584 11.8807284,0.004691142 C12.5525134,0.00831609588 13.224371,0.0334007768 13.895721,0.0605154319 C14.5738874,0.0879200832 15.2418291,0.185141346 15.8903367,0.395606169 C16.5263715,0.602083543 17.1092523,0.904549695 17.6212129,1.33838418 C18.371895,1.97449108 18.8959656,2.76030859 19.1933523,3.69851915 C19.3381661,4.15533584 19.4335967,4.62172241 19.4821822,5.09782385 C19.5536826,5.79830994 19.5747847,6.50169599 19.5787731,7.20479205 C19.5875475,8.77584706 19.5897954,10.3469746 19.5833415,11.9180296 C19.5806585,12.5763937 19.555423,13.2349028 19.5285197,13.892832 C19.5013263,14.5573585 19.406911,15.2123152 19.2050274,15.8492196 C18.9097436,16.7806152 18.402134,17.5721602 17.6592836,18.2100071 C17.0745899,18.7121357 16.4030224,19.0497639 15.6638703,19.2581987 C15.2123153,19.3855071 14.7519133,19.4622836 14.284695,19.4985332 C13.5018159,19.5592874 12.717269,19.5784996 11.9324321,19.5811821 C10.6115594,19.5856046 9.29061414,19.5911145 7.96981395,19.5825596 C7.20687672,19.5775572 6.44372194,19.552835 5.68114728,19.5240528 C5.07672927,19.5013606 4.4794178,19.4181317 3.89624688,19.2497163 C2.44013248,18.8292942 1.35616843,17.9552453 0.678074514,16.5953801 C0.425212416,16.088394 0.271624253,15.5465359 0.174670819,14.988438 C0.0832285749,14.4623847 0.0577755791,13.9309665 0.0360208818,13.3988958 C-0.0130722184,12.1966435 -9.19157139e-05,10.9938113 0.00708713439,9.79105165"/>
    <path d="M6.42094177 9.64676086C6.42079848 11.4271071 7.86412046 12.8724609 9.64323366 12.8736788 11.4266455 12.8749683 12.8727615 11.432122 12.8738362 9.65019962 12.8750541 7.86720263 11.4312306 6.42141903 9.64910839 6.42098919 7.86612646 6.42055934 6.42108505 7.86455192 6.42094177 9.64676086M14.6171994 9.64926829C14.6144054 12.3966225 12.3944721 14.6159121 9.64789046 14.6172017 6.90202521 14.6184912 4.67499932 12.3908196 4.67750683 9.64532804 4.68008598 6.89704251 6.91234182 4.66757987 9.65175919 4.67753794 12.4048604 4.68749602 14.6200652 6.90542448 14.6171994 9.64926829M14.9122848 3.50813283C15.5610573 3.50993603 16.0822249 4.03401688 16.0789067 4.68121995 16.0755885 5.32705259 15.5520405 5.84832046 14.9082453 5.8468779 14.2630795 5.84543535 13.7374397 5.31681044 13.7401808 4.67220397 13.742994 4.02781389 14.2680568 3.50640176 14.9122848 3.50813283"/>
  </g>
</svg>
