<svg xmlns="http://www.w3.org/2000/svg" viewBox="0 0 21 17">
  <path d="M51.8582478,5.14134301 C51.3084257,5.98033981 50.6245007,6.7009298 49.8047964,7.30142146 L49.8047964,7.8477843 C49.8047964,8.77135739 49.6891326,9.70169658 49.4561287,10.6371104 C49.2248012,11.5725241 48.8895438,12.4808735 48.4553855,13.3621584 C48.0195509,14.2451349 47.4613474,15.068908 46.780775,15.8351692 C46.0985262,16.6014304 45.3358157,17.2712746 44.4909671,17.8430103 C43.6477949,18.414746 42.6738722,18.8646919 41.5691992,19.1962309 C40.4662024,19.5260785 39.3028594,19.691848 38.0774937,19.691848 C35.5965892,19.691848 33.4844678,19.1268784 31.7428057,17.9969391 C32.0445374,18.0426103 32.3714133,18.0662917 32.7251098,18.0662917 C33.6420387,18.0662917 34.5388522,17.88699 35.4155502,17.530078 C36.2939245,17.1731661 37.1018948,16.6944643 37.8428135,16.0939726 C36.9577341,16.0872065 36.1614978,15.8114878 35.4507522,15.265125 C34.7400066,14.7204537 34.257236,14.0320026 34.0024404,13.199772 C34.2773514,13.2522093 34.532147,13.2792737 34.7685035,13.2792737 C35.1473443,13.2792737 35.5144511,13.2285279 35.8681477,13.1304194 C34.9193693,12.9375855 34.1298382,12.4605752 33.5012306,11.697697 C32.8726231,10.9348189 32.5574812,10.0501509 32.5574812,9.0470761 L32.5574812,8.99633032 C33.1475341,9.32110328 33.7694365,9.49194738 34.4248647,9.51224569 C33.8549272,9.12826933 33.404006,8.63265227 33.0737775,8.02539451 C32.743549,7.41813674 32.5775966,6.76351626 32.5775966,6.06322457 C32.5775966,5.3832312 32.7636644,4.7083124 33.1374764,4.04185123 C34.1717454,5.31049559 35.4222554,6.31526192 36.8890063,7.05953327 C38.3557573,7.8021131 39.9381721,8.21991998 41.6328981,8.3129539 C41.574228,8.05584197 41.5457312,7.73445207 41.5457312,7.35216724 C41.5457312,6.20192969 41.9463637,5.22253625 42.7476288,4.41229538 C43.5505702,3.60374605 44.5211403,3.19947138 45.6610153,3.19947138 C46.8327398,3.19947138 47.8435408,3.63419351 48.6950945,4.50702083 C49.6321389,4.31587841 50.4987792,3.97926478 51.298368,3.4954884 C50.9849023,4.50025473 50.3780865,5.26989897 49.481273,5.80611265 C50.299301,5.71307873 51.0921847,5.49148885 51.8582478,5.14134301" transform="translate(-30.989 -3)"/>
</svg>
