<svg xmlns="http://www.w3.org/2000/svg" xmlns:xlink="http://www.w3.org/1999/xlink" viewBox="0 0 273 35"><defs><path id="a" d="M.335.664h23.797v33.584H.335z"/><path id="c" d="M.88.664h21.153v33.584H.88z"/><path id="e" d="M.29.664h23.798v33.584H.29z"/><path id="g" d="M.836.664h21.153v33.584H.836z"/><path id="i" d="M.233.664h21.154v33.584H.233z"/><path id="k" d="M.037.664h21.152v33.584H.037z"/></defs><g fill="none" fill-rule="evenodd"><g transform="translate(31.844 .077)"><mask id="b" fill="#fff"><use xlink:href="#a"/></mask><path fill="#42A76E" d="M5.623 25.852c0 2.399 1.323 3.598 3.967 3.598h5.288c2.644 0 3.965-1.2 3.965-3.598v-5.997h-7.931v-4.797h13.22v10.794c0 5.598-3.085 8.396-9.254 8.396H9.59c-6.17 0-9.255-2.798-9.255-8.396V9.062C.335 3.463 3.42.663 9.59.663h14.542v4.798H9.59c-2.644 0-3.967 1.2-3.967 3.6v16.79z" mask="url(#b)"/></g><g transform="translate(60.384 .077)"><mask id="d" fill="#fff"><use xlink:href="#c"/></mask><path fill="#42A76E" mask="url(#d)" d="M22.033 15.058v4.798H6.168v9.595h15.865v4.797H.88V.664h21.153v4.798H6.168v9.596z"/></g><g transform="translate(140.296 .077)"><mask id="f" fill="#fff"><use xlink:href="#e"/></mask><path fill="#42A76E" d="M5.579 5.462v9.596h9.255c2.643 0 3.965-1.2 3.965-3.598v-2.4c0-2.398-1.322-3.598-3.965-3.598H5.579zm0 14.394v14.392H.29V.664h14.544c6.169 0 9.254 2.8 9.254 8.397v2.4c0 5.596-3.085 8.395-9.254 8.395H5.579z" mask="url(#f)"/></g><g transform="translate(168.837 .077)"><mask id="h" fill="#fff"><use xlink:href="#g"/></mask><path fill="#42A76E" mask="url(#h)" d="M21.989 15.058v4.798H6.123v9.595h15.866v4.797H.836V.664h21.153v4.798H6.123v9.596z"/></g><path fill="#42A76E" d="M202.83 22.331h10.365L208.01 5.54l-5.182 16.792zm19.724 11.994h-5.287l-2.46-7.196h-13.59l-2.46 7.196h-5.288L204.574.742h6.875l11.105 33.583z"/><g transform="translate(224.965 .077)"><mask id="j" fill="#fff"><use xlink:href="#i"/></mask><path fill="#42A76E" d="M5.521 25.852c0 2.399 1.323 3.598 3.966 3.598h11.9v4.798h-11.9c-6.169 0-9.254-2.798-9.254-8.396V9.062C.233 3.463 3.318.663 9.487.663h11.9v4.798h-11.9c-2.643 0-3.966 1.2-3.966 3.6v16.79z" mask="url(#j)"/></g><g transform="translate(251.603 .077)"><mask id="l" fill="#fff"><use xlink:href="#k"/></mask><path fill="#42A76E" mask="url(#l)" d="M21.189 15.058v4.798H5.324v9.595h15.865v4.797H.037V.664h21.152v4.798H5.324v9.596z"/></g><path fill="#42A76E" d="M98.24 21.982l4.105-.567-2.052-7.077-2.053 7.644zm7.813 4.196l-2.095.283-.974-3.028-5.383.738-.974 3.281-2.094.284 4.398-15.306 2.723-.39 4.4 14.138zm3.142-15.217l6.284 9.701v-10.6l2.095-.299v14.856l-2.095.283-6.284-9.715v10.565l-2.095.283V11.261zM127 12.147c0-1.067-.524-1.525-1.572-1.377l-3.665.52v10.635l3.665-.5c1.048-.143 1.571-.748 1.571-1.814v-7.464zm-1.572-3.508c2.444-.35 3.666.721 3.666 3.212v7.473c0 2.49-1.222 3.901-3.666 4.232l-5.76.78V9.462l5.76-.824zm4.516-2.873l-36.261 5.21V9.173l36.261-5.243zm0 20.71l-36.261 4.85v-1.802l36.261-4.885zM11.556.742L.45 34.326h5.287l2.46-7.197h13.591l2.46 7.197h5.287L18.43.742h-6.873zm3.437 4.797l5.182 16.792H9.81L14.993 5.54z"/></g></svg>
