<svg xmlns="http://www.w3.org/2000/svg" xmlns:xlink="http://www.w3.org/1999/xlink" viewBox="0 0 79 45">
  <defs>
    <polygon id="logo_mobile-a" points=".11 .108 17.34 .108 17.34 20.002 .11 20.002"/>
    <polygon id="logo_mobile-c" points=".209 .108 12.739 .108 12.739 20.002 .209 20.002"/>
  </defs>
  <g fill="none" fill-rule="evenodd" transform="translate(.5 .027)">
    <path fill="#42A76E" d="M21.927911,15.3326402 C21.927911,16.7536618 22.7110382,17.4641726 24.2777276,17.4641726 L27.4098018,17.4641726 C28.9764911,17.4641726 29.7596184,16.7536618 29.7596184,15.3326402 L29.7596184,11.7800863 L25.0608548,11.7800863 L25.0608548,8.93760828 L32.8921274,8.93760828 L32.8921274,15.3326402 C32.8921274,18.6482123 31.0649754,20.3062158 27.4098018,20.3062158 L24.2777276,20.3062158 C20.6225539,20.3062158 18.795402,18.6482123 18.795402,15.3326402 L18.795402,5.38592399 C18.795402,2.06991708 20.6225539,0.41191363 24.2777276,0.41191363 L32.8921274,0.41191363 L32.8921274,3.25395679 L24.2777276,3.25395679 C22.7110382,3.25395679 21.927911,3.96446758 21.927911,5.38592399 L21.927911,15.3326402 Z"/>
    <polygon fill="#42A76E" points="48.555 8.938 48.555 11.78 39.158 11.78 39.158 17.464 48.555 17.464 48.555 20.306 36.025 20.306 36.025 .412 48.555 .412 48.555 3.254 39.158 3.254 39.158 8.938"/>
    <path fill="#42A76E" d="M3.22473627,27.7354453 L3.22473627,33.4190968 L8.70706188,33.4190968 C10.2728816,33.4190968 11.0564436,32.7090208 11.0564436,31.2875644 L11.0564436,29.8665428 C11.0564436,28.4459561 10.2728816,27.7354453 8.70706188,27.7354453 L3.22473627,27.7354453 Z M3.22473627,36.2615748 L3.22473627,44.7872694 L0.0926620865,44.7872694 L0.0926620865,24.8934021 L8.70706188,24.8934021 C12.3618007,24.8934021 14.1889527,26.5514056 14.1889527,29.8665428 L14.1889527,31.2875644 C14.1889527,34.6040062 12.3618007,36.2615748 8.70706188,36.2615748 L3.22473627,36.2615748 Z"/>
    <polygon fill="#42A76E" points="29.852 33.419 29.852 36.262 20.454 36.262 20.454 41.945 29.852 41.945 29.852 44.787 17.322 44.787 17.322 24.894 29.852 24.894 29.852 27.736 20.454 27.736 20.454 33.419"/>
    <g transform="translate(31.308 24.785)">
      <mask id="logo_mobile-b" fill="#fff">
        <use xlink:href="#logo_mobile-a"/>
      </mask>
      <path fill="#42A76E" d="M5.6553876,12.8971188 L11.7951748,12.8971188 L8.72571605,2.95040258 L5.6553876,12.8971188 Z M17.339681,20.0022267 L14.207172,20.0022267 L12.7504944,15.739162 L4.69963318,15.739162 L3.24295561,20.0022267 L0.110446598,20.0022267 L6.68897643,0.107924589 L10.761586,0.107924589 L17.339681,20.0022267 Z" mask="url(#logo_mobile-b)"/>
    </g>
    <g transform="translate(50.005 24.785)">
      <mask id="logo_mobile-d" fill="#fff">
        <use xlink:href="#logo_mobile-c"/>
      </mask>
      <path fill="#42A76E" d="M3.34066172,15.0287816 C3.34066172,16.4498032 4.1242238,17.1598792 5.69047831,17.1598792 L12.7386236,17.1598792 L12.7386236,20.0023572 L5.69047831,20.0023572 C2.03573951,20.0023572 0.208587531,18.3443537 0.208587531,15.0287816 L0.208587531,5.08163057 C0.208587531,1.76605849 2.03573951,0.108055038 5.69047831,0.108055038 L12.7386236,0.108055038 L12.7386236,2.9500982 L5.69047831,2.9500982 C4.1242238,2.9500982 3.34066172,3.66060899 3.34066172,5.08163057 L3.34066172,15.0287816 Z" mask="url(#logo_mobile-d)"/>
    </g>
    <polygon fill="#42A76E" points="78.407 33.419 78.407 36.262 69.009 36.262 69.009 41.945 78.407 41.945 78.407 44.787 65.877 44.787 65.877 24.894 78.407 24.894 78.407 27.736 69.009 27.736 69.009 33.419"/>
    <path fill="#42A76E" d="M57.9278491,12.9943466 L60.3598484,12.6586585 L59.1440661,8.4660361 L57.9278491,12.9943466 Z M62.5561703,15.4793951 L61.315168,15.6476739 L60.7385845,13.8540038 L57.5495477,14.2905722 L56.9725295,16.2351281 L55.7315272,16.4029721 L58.3370233,7.33548037 L59.9502393,7.10502094 L62.5561703,15.4793951 Z"/>
    <polygon fill="#42A76E" points="64.417 6.466 68.14 12.213 68.14 5.933 69.381 5.756 69.381 14.556 68.14 14.724 64.417 8.969 64.417 15.228 63.176 15.396 63.176 6.643"/>
    <path fill="#42A76E" d="M74.9643237,7.16811464 C74.9643237,6.53630792 74.6538557,6.26453972 74.0333546,6.35281003 L71.8622528,6.66110388 L71.8622528,12.9604734 L74.0333546,12.6643548 C74.6538557,12.5795631 74.9643237,12.2216987 74.9643237,11.589892 L74.9643237,7.16811464 Z M74.0333546,5.09050108 C75.4809007,4.88352242 76.2053261,5.51750328 76.2053261,6.99331334 L76.2053261,11.419439 C76.2053261,12.895249 75.4809007,13.7309906 74.0333546,13.9266637 L70.6216853,14.3880174 L70.6216853,5.57837936 L74.0333546,5.09050108 Z"/>
    <polygon fill="#42A76E" points="76.709 3.389 55.228 6.474 55.228 5.407 76.709 2.301"/>
    <polygon fill="#42A76E" points="76.709 15.656 55.228 18.529 55.228 17.462 76.709 14.568"/>
    <path fill="#42A76E" d="M6.57813849,0.411870147 L4.34829125e-05,20.3057374 L3.1325525,20.3057374 L4.58879524,16.0431075 L12.6400913,16.0431075 L14.0967689,20.3057374 L17.2292779,20.3057374 L10.6507481,0.411870147 L6.57813849,0.411870147 Z M8.61487811,3.25434814 L11.6843369,13.2010644 L5.54498449,13.2010644 L8.61487811,3.25434814 Z"/>
  </g>
</svg>
