<svg id="snap_logo" data-name="snap_logo" xmlns="http://www.w3.org/2000/svg">
  <title>logo_snap_dark</title>
  <g>
    <g>
      <path d="M216,446.6c-22.7,0-43.4-14.4-52.7-36.7-4.6-11-6.3-18-4.2-30.4l1.8-11.6-10.7-4.7A164.9,164.9,0,0,1,51.1,212.1c0-90.9,73.9-164.9,164.8-164.9a165.7,165.7,0,0,1,149.2,94.7,37.1,37.1,0,0,1-2.4,36.6A39.4,39.4,0,0,1,334,196.7C326.4,138.1,275.5,93,215.9,93l-8.5.3c-58.7,4.1-106.1,51.5-110.2,110.2-4.5,63,41.5,120.7,103.7,126.7,3.7.4,15,1,15,1a57.7,57.7,0,0,1,.5,115.4Z" fill="#f60"/>
      <path d="M215.9,553.3c-63.4,0-122-37.2-149.2-94.8A37.2,37.2,0,0,1,69.2,422a39.6,39.6,0,0,1,28.6-18.3c7.7,58.6,58.5,103.8,118.1,103.8,3,0,5.9-.1,8.9-.3,56-4.1,103.1-49.2,109.4-104.9a119.2,119.2,0,0,0-118-133h-.8a56.7,56.7,0,0,1-41-17.6,57.7,57.7,0,0,1-16.2-41.9c1-29.9,26.1-55,56.1-55.9h1.6a57.8,57.8,0,0,1,57.8,57.7,55,55,0,0,1-.9,9.4l-1.9,11.6,10.8,4.6a165.1,165.1,0,0,1,99.1,151.2C380.8,479.3,306.8,553.3,215.9,553.3Z" fill="#3dbfd9"/>
    </g>
    <g>
      <path d="M754.1,427.5V183.3a4.5,4.5,0,0,1,4.5-4.5h35.3a4.5,4.5,0,0,1,4.5,4.5v23.8c6.2-8.2,15.3-15.7,27.5-22.7s28.2-10.4,48-10.4a116.8,116.8,0,0,1,42.3,7.5,91.9,91.9,0,0,1,55,55.8c5.2,13.6,7.8,28.8,7.8,45.7V427.5a4.5,4.5,0,0,1-4.5,4.5H939.2a4.5,4.5,0,0,1-4.5-4.5V290.3c0-25-6-43.6-18-56s-28.7-18.5-50.1-18.5-37,6.2-49.5,18.5-18.7,31-18.7,56V427.5a4.5,4.5,0,0,1-4.5,4.5H758.6A4.5,4.5,0,0,1,754.1,427.5Z" fill="#2c2e30"/>
      <path d="M1320.1,520.2V183.1a4.5,4.5,0,0,1,4.5-4.5h35.3a4.6,4.6,0,0,1,4.6,4.5v23.8c6.4-8.7,15.7-16.4,27.7-23.1s28-10,47.8-10a113.3,113.3,0,0,1,42.6,8,98.7,98.7,0,0,1,34.3,23.2,111.2,111.2,0,0,1,23.4,36.5c5.9,14.3,9.3,30.4,10.3,48.3.3,4.8.5,10.1.5,15.8s-.2,10.9-.5,15.8c-1,17.9-4.4,34-10.3,48.2a109.2,109.2,0,0,1-23.4,36.3,98,98,0,0,1-34.3,22.9,111.4,111.4,0,0,1-42.6,8.1c-20.2,0-36.2-3.5-48.3-10.5s-21.1-14.5-27.2-22.6V520.2a4.6,4.6,0,0,1-4.6,4.5h-35.3A4.5,4.5,0,0,1,1320.1,520.2Zm44.4-235.8c-.4,4.9-.5,11.3-.5,19.2s.1,14.4.5,19.3q1.4,34.5,20.7,53.3t49.9,18.8q32.1,0,50.7-20.5t20.4-55.5q.6-13.7,0-27.3-2-35.1-20.4-55.5t-50.7-20.5q-30.1,0-49.7,18.5T1364.5,284.4Z" fill="#2c2e30"/>
      <path d="M663.1,232.2a4.7,4.7,0,0,1-6.9-1A68.2,68.2,0,0,0,600.3,203a76.8,76.8,0,0,0-17.2,1.9,48,48,0,0,0-15.2,6.1,33.6,33.6,0,0,0-10.7,10.5c-2.7,4.3-4,9.5-4,15.8q0,16.6,14.4,24.6c9.7,5.4,24.1,10.3,43.4,14.7a266.9,266.9,0,0,1,33.7,10.6,103.5,103.5,0,0,1,27,15.2,65,65,0,0,1,17.9,21.9c4.3,8.5,6.4,18.4,6.4,29.9,0,15.5-2.8,28.6-8.5,39.3a75.4,75.4,0,0,1-22.8,26.3,92.5,92.5,0,0,1-32.3,14.7,161.6,161.6,0,0,1-37.5,4.4,144.2,144.2,0,0,1-56.4-11.6,110.3,110.3,0,0,1-42.8-31.7,5,5,0,0,1,.6-6.9l28.5-25.1a4.5,4.5,0,0,1,6.7.8,85.8,85.8,0,0,0,25.2,21.9A76.1,76.1,0,0,0,596,396.8a84.4,84.4,0,0,0,18.4-1.9,50.7,50.7,0,0,0,16.1-6.4A33.6,33.6,0,0,0,642,376.9c2.8-4.8,4.3-10.9,4.3-18.3,0-12.2-5.6-21.2-16.9-27.1s-27.7-11.5-49.5-16.7c-8.5-2.2-17.2-4.8-25.9-8a84.5,84.5,0,0,1-23.8-13A62.9,62.9,0,0,1,512.8,273c-4.5-8.3-6.7-18.5-6.7-30.7,0-14,2.8-26.1,8.3-36.3a72.7,72.7,0,0,1,21.7-24.9,91.4,91.4,0,0,1,30.5-14.4,133.6,133.6,0,0,1,35.3-4.7,132.1,132.1,0,0,1,52.7,11c15.4,6.8,27.6,16.2,36.7,28.5a4.9,4.9,0,0,1-.8,6.6Z" fill="#2c2e30"/>
      <path d="M1241.6,228.9c-26.3-55.1-96.6-64.3-147.7-45.9a108.1,108.1,0,0,0-42.3,27.8c-5.6,5.9-4.6,4.6-9.4,10.8a4.6,4.6,0,0,0,.6,6.3l26.4,22.7c1.8,1.6,4.8,1.7,6.2-.3,6.1-8.6,14.6-18.1,21.9-22.3,37.2-21.2,76.6-11.4,91.2.1,10.7,8.5,16.3,20.7,16.3,37.3v9.9s-40.2-.6-68.7,3.1c-16.9,2.2-45.8,9.1-70.7,27.2a72,72,0,0,0-21.4,24.9c-5.2,9.7-7.8,24.7-7.8,37.7a62,62,0,0,0,6.1,27.3,62.8,62.8,0,0,0,17.1,21.6c7.3,6.1,16.2,10.8,26.7,14.4a107.8,107.8,0,0,0,34.9,5.4,124.9,124.9,0,0,0,24.1-2.5,122.2,122.2,0,0,0,24.8-7.3,88.4,88.4,0,0,0,21.2-11.9,43.9,43.9,0,0,0,13.7-16.3v28.6a4.5,4.5,0,0,0,4.5,4.5h35.3a4.5,4.5,0,0,0,4.5-4.5V270.3C1249.1,254.7,1247.2,240.6,1241.6,228.9Zm-36.8,94a74.5,74.5,0,0,1-5.6,29.2,65.3,65.3,0,0,1-16.1,22.7,75.5,75.5,0,0,1-25.1,14.8,92,92,0,0,1-32.1,5.4c-8.5,0-15.6-1-21.2-2.9a40.1,40.1,0,0,1-13.9-7.8A31.6,31.6,0,0,1,1083,374a25.7,25.7,0,0,1-2.5-10.7c0-11.4,6.4-23.6,18.1-31.4s21.6-13.2,48.7-16.5c14.1-1.7,57.5-1.1,57.5-1.1Z" fill="#2c2e30"/>
    </g>
  </g>
</svg>
