<svg xmlns="http://www.w3.org/2000/svg" viewBox="0 0 41 32"><path fill="#ECA941" fill-rule="evenodd" d="M37.725 22.799c0 2.9-.725 5.075-2.175 6.525-1.45 1.45-3.425 2.175-5.925 2.175-2.6 0-4.575-.9-5.925-2.7-1.35-1.8-2.025-3.85-2.025-6.15 0-3.4.65-6.425 1.95-9.075 1.3-2.65 2.85-4.9 4.65-6.75 1.8-1.85 3.65-3.3 5.55-4.35 1.9-1.05 3.45-1.775 4.65-2.175l2.25 5.25c-2.3 1.1-4.3 2.625-6 4.575-1.7 1.95-2.75 4.225-3.15 6.825.3-.1.75-.15 1.35-.15 1.5 0 2.675.6 3.525 1.8.85 1.2 1.275 2.6 1.275 4.2zm-20.85 0c0 2.9-.725 5.075-2.175 6.525-1.45 1.45-3.425 2.175-5.925 2.175-2.6 0-4.575-.9-5.925-2.7-1.35-1.8-2.025-3.85-2.025-6.15 0-3.4.65-6.425 1.95-9.075 1.3-2.65 2.85-4.9 4.65-6.75 1.8-1.85 3.65-3.3 5.55-4.35 1.9-1.05 3.45-1.775 4.65-2.175l2.25 5.25c-2.3 1.1-4.3 2.625-6 4.575-1.7 1.95-2.75 4.225-3.15 6.825.3-.1.75-.15 1.35-.15 1.5 0 2.675.6 3.525 1.8.85 1.2 1.275 2.6 1.275 4.2z"/></svg>