<svg xmlns="http://www.w3.org/2000/svg" viewBox="0 0 39.29 38.48"><g data-name="Layer 2"><path d="M19.65 4.44L6.88 14.88v20h6.17V23.27a2.72 2.72 0 0 1 2.71-2.72h7.74a2.72 2.72 0 0 1 2.71 2.72v11.58h6.19L32.48 15 19.65 4.44" fill="#f3c783"/><path d="M39 15.68l-3-2.37V5a.91.91 0 0 0-.91-.91h-3.23a.91.91 0 0 0-.91.92v4.05L20.23.21a.92.92 0 0 0-1.17 0L.33 15.68a.91.91 0 1 0 1.17 1.41l1.76-1.45v21.92a.91.91 0 0 0 .91.91h11.68a.84.84 0 0 0 .84-.84V24.19h5.91v13.45a.84.84 0 0 0 .84.84h11.68a.92.92 0 0 0 .92-.92V15.64l1.76 1.46a.91.91 0 0 0 1.2-1.42zm-4.75 21h-9.82V23.27a.92.92 0 0 0-.92-.92h-7.74a.92.92 0 0 0-.92.92v13.38H5.08L5 14.16 19.65 2.1l14.55 12z" fill="#eca941"/></g></svg>