<svg xmlns="http://www.w3.org/2000/svg" viewBox="0 0 20 21"><path d="M10.032 18.615v.005c.642 0 1.284.002 1.926 0a31.835 31.835 0 0 0 2.452-.082c.46-.037.91-.122 1.342-.287.883-.337 1.512-.938 1.883-1.807.23-.537.324-1.106.354-1.684.03-.615.056-1.23.06-1.846.009-1.48.006-2.96.003-4.439a28.92 28.92 0 0 0-.08-2.262 4.894 4.894 0 0 0-.299-1.375 3.174 3.174 0 0 0-1.75-1.832c-.51-.224-1.051-.326-1.603-.362-.477-.03-.955-.05-1.432-.061a68.901 68.901 0 0 0-1.688-.017c-1.637.001-3.275-.024-4.912.045-.48.02-.958.052-1.427.16-.407.095-.8.228-1.156.453A3.236 3.236 0 0 0 2.33 4.976c-.159.472-.24.958-.265 1.453a37.74 37.74 0 0 0-.06 1.72 627.17 627.17 0 0 0-.003 4.599c.001.745.02 1.49.08 2.232.039.471.129.932.3 1.375.33.851.913 1.462 1.748 1.828.556.243 1.146.341 1.747.373.526.028 1.054.051 1.581.057.858.01 1.716.002 2.574.002M.24 10.593c0-.87-.008-1.742.003-2.613.008-.597.033-1.194.07-1.79a6.615 6.615 0 0 1 .503-2.194 4.972 4.972 0 0 1 1.261-1.749c.611-.554 1.328-.91 2.117-1.128.37-.102.746-.172 1.128-.21a26.382 26.382 0 0 1 2.48-.101C9.24.802 10.678.798 12.115.807c.672.003 1.343.028 2.015.056a7.388 7.388 0 0 1 1.994.335 5.048 5.048 0 0 1 1.731.942 5.023 5.023 0 0 1 1.572 2.36c.145.457.24.924.29 1.4.07.7.092 1.404.096 2.107.009 1.57.01 3.142.004 4.713a53.712 53.712 0 0 1-.054 1.975 7.444 7.444 0 0 1-.324 1.956 5.06 5.06 0 0 1-1.546 2.361 5.166 5.166 0 0 1-1.995 1.048 7.088 7.088 0 0 1-1.38.24c-.782.061-1.567.08-2.352.083-1.32.005-2.641.01-3.962.002a73.471 73.471 0 0 1-2.289-.059 7.41 7.41 0 0 1-1.785-.274c-1.456-.42-2.54-1.295-3.218-2.655a5.792 5.792 0 0 1-.503-1.607c-.093-.526-.119-1.057-.14-1.59-.05-1.2-.036-2.403-.029-3.606"/><path d="M6.654 10.449a3.227 3.227 0 1 0 6.454 0 3.227 3.227 0 0 0-6.454 0m8.196.002a4.968 4.968 0 0 1-4.97 4.968 4.968 4.968 0 0 1-4.97-4.972C4.914 7.7 7.146 5.47 9.886 5.48a4.967 4.967 0 0 1 4.965 4.971m.295-6.14a1.17 1.17 0 1 1-.006 2.338 1.17 1.17 0 0 1 .006-2.339"/></svg>