<svg xmlns="http://www.w3.org/2000/svg" viewBox="0 0 21 21"><path d="M11.57 20.802V13.19c0-.812.22-1.44.663-1.877.441-.44.996-.66 1.665-.66.674 0 1.222.244 1.644.73.423.485.634 1.229.634 2.234v7.185h4.194V13.19c0-1.864-.46-3.315-1.385-4.355-.923-1.04-2.139-1.562-3.644-1.562-.8 0-1.515.202-2.15.604a5.402 5.402 0 0 0-1.621 1.626l-.138-1.814H7.307l.068 2.964v10.15h4.195zm-10.893 0h4.184V7.69H.677v13.113zM2.749 5.578H2.72c-.727 0-1.319-.223-1.778-.67C.484 4.465.255 3.912.255 3.25c0-.666.234-1.221.702-1.66.468-.44 1.08-.66 1.832-.66.74 0 1.338.22 1.792.66.456.438.69.993.702 1.66 0 .667-.233 1.222-.697 1.664-.464.443-1.078.664-1.837.664z"/></svg>