<svg xmlns="http://www.w3.org/2000/svg" viewBox="0 0 21 17"><path d="M20.87 2.141a8.294 8.294 0 0 1-2.054 2.16v.547c0 .923-.116 1.854-.349 2.79a13.476 13.476 0 0 1-1 2.724 11.14 11.14 0 0 1-1.675 2.473 12.245 12.245 0 0 1-2.29 2.008c-.843.572-1.817 1.022-2.922 1.353-1.103.33-2.266.496-3.492.496-2.48 0-4.593-.565-6.334-1.695.302.046.628.07.982.07a7.07 7.07 0 0 0 2.69-.537 9.534 9.534 0 0 0 2.428-1.436 3.874 3.874 0 0 1-2.392-.829A4.04 4.04 0 0 1 3.013 10.2c.275.052.53.08.767.08.378 0 .745-.051 1.1-.15a4.027 4.027 0 0 1-2.368-1.432 4.048 4.048 0 0 1-.944-2.65v-.052c.59.325 1.212.496 1.868.516a4.169 4.169 0 0 1-1.351-1.487 4.046 4.046 0 0 1-.496-1.962c0-.68.186-1.355.56-2.021A11.496 11.496 0 0 0 5.9 4.06c1.467.742 3.05 1.16 4.744 1.253a4.423 4.423 0 0 1-.087-.96c0-1.151.4-2.13 1.202-2.94.803-.81 1.773-1.214 2.913-1.214 1.172 0 2.183.435 3.034 1.308A8.121 8.121 0 0 0 20.31.495a3.99 3.99 0 0 1-1.817 2.311 7.811 7.811 0 0 0 2.377-.665"/></svg>