<svg xmlns="http://www.w3.org/2000/svg" viewBox="0 0 30 30"><path d="M23.077 10.923v.462c0 5.23-4.077 11.383-11.385 11.383-2.23 0-4.384-.46-6.154-1.614h.924c1.769 0 3.615-.77 4.923-1.923-1.77 0-3.308-1.231-3.77-2.846.308 0 .462.153.77.153.307 0 .769 0 1.077-.153-1.77-.308-3.154-1.923-3.154-3.923.615.461 1.23.615 1.923.615-1.077-.77-1.77-1.923-1.77-3.308 0-.769.154-1.384.616-1.923 1.923 2.385 4.77 3.923 8.077 4.077 0-.308-.154-.615-.154-.923 0-2.23 1.77-4.077 4.077-4.077 1.23 0 2.23.462 3 1.23a7.18 7.18 0 0 0 2.538-.922c-.307.923-.923 1.615-1.769 2.23.77-.153 1.616-.307 2.23-.615-.46.77-1.23 1.539-2 2.077M15 0C6.77 0 0 6.77 0 15s6.77 15 15 15 15-6.77 15-15S23.23 0 15 0"/></svg>