<svg xmlns="http://www.w3.org/2000/svg" viewBox="0 0 30 30"><path d="M24.375 22.5v-5.625c0-1.719-.396-3.086-1.187-4.101-.79-1.016-1.855-1.524-3.193-1.524-.742 0-1.387.203-1.934.608-.547.405-.942.955-1.186 1.648l-.132-1.626h-3.72l.102 2.49v8.13h3.75v-5.625c0-.771.164-1.382.49-1.83.328-.45.78-.675 1.356-.675.615 0 1.086.19 1.413.571.327.382.49 1.026.49 1.934V22.5h3.75zm-17.505 0h3.75V11.88H6.87V22.5zm1.875-12.495c.752 0 1.357-.21 1.817-.63a2.04 2.04 0 0 0 .688-1.567c-.02-.635-.254-1.158-.703-1.568-.45-.41-1.05-.615-1.802-.615-.742 0-1.343.205-1.802.615-.459.41-.688.933-.688 1.568 0 .625.227 1.147.68 1.567.455.42 1.049.63 1.78.63h.03zm.417-8.818A14.698 14.698 0 0 1 15 0c2.04 0 3.987.396 5.837 1.187 1.85.79 3.445 1.855 4.783 3.193 1.338 1.338 2.402 2.932 3.194 4.783A14.704 14.704 0 0 1 30 15a14.7 14.7 0 0 1-1.186 5.837c-.792 1.851-1.856 3.445-3.194 4.783-1.338 1.338-2.932 2.402-4.783 3.194A14.696 14.696 0 0 1 15 30c-2.041 0-3.987-.395-5.838-1.186-1.85-.792-3.444-1.856-4.782-3.194-1.338-1.338-2.402-2.932-3.193-4.783A14.687 14.687 0 0 1 0 15c0-2.04.395-3.986 1.187-5.837.79-1.85 1.855-3.445 3.193-4.783 1.338-1.338 2.932-2.402 4.782-3.193z"/></svg>