<svg xmlns="http://www.w3.org/2000/svg" viewBox="0 0 30 30"><path d="M24.375 20.699v-8.965L15 18.75l-9.375-7.016v8.965c0 .332.115.61.344.835.23.225.511.336.842.336H23.19c.331 0 .612-.111.842-.336.229-.225.344-.503.344-.835zM15 16.319l9.375-7.016c0-.333-.115-.61-.344-.836a1.16 1.16 0 0 0-.842-.337H6.81a1.16 1.16 0 0 0-.842.337 1.124 1.124 0 0 0-.344.835L15 16.32zM15 0c2.031 0 3.972.399 5.822 1.194 1.852.796 3.446 1.864 4.783 3.201 1.339 1.338 2.405 2.933 3.201 4.783A14.58 14.58 0 0 1 30 15c0 2.041-.398 3.988-1.194 5.837-.796 1.852-1.862 3.445-3.201 4.784-1.337 1.338-2.931 2.402-4.783 3.193A14.655 14.655 0 0 1 15 30c-2.041 0-3.986-.395-5.838-1.186-1.85-.791-3.444-1.855-4.782-3.193s-2.403-2.932-3.194-4.784A14.692 14.692 0 0 1 0 15c0-2.031.395-3.971 1.186-5.822.791-1.85 1.856-3.446 3.194-4.783C5.718 3.058 7.313 1.99 9.162 1.194A14.638 14.638 0 0 1 15 0z"/></svg>