<svg xmlns="http://www.w3.org/2000/svg" viewBox="0 0 41 54"><g fill="none" fill-rule="evenodd"><path fill="#FFF" d="M2.169 51.86V6.537h14.348l.052-.256c.386-1.903 2.004-3.28 3.847-3.28 1.846 0 3.463 1.377 3.85 3.276l.051.26H38.66v45.321H2.17z"/><path fill="#42A76E" d="M37.224 50.423H3.605V7.974h7.596v6.875h18.427V7.974h7.596v42.449zM17.696 7.974l.283-1.412c.25-1.238 1.264-2.124 2.437-2.124 1.174 0 2.19.886 2.44 2.124l.282 1.412h3.196v3.304H14.501V7.974h3.195zm22.83-3.57H25.628c-.962-2.18-2.995-3.566-5.226-3.566-2.23 0-4.263 1.386-5.226 3.565H.304v49.584h40.221V4.403z"/><path fill="#42A76E" d="M13.439 29.057a407.073 407.073 0 0 1 4.654 5.345s6.353-9.726 12.363-14.409l.463 1.633c-2.185 1.8-8.786 11.659-11.373 20.39 0 0-6.887-8.845-8.2-10.859l2.093-2.1z"/></g></svg>