<svg xmlns="http://www.w3.org/2000/svg" viewBox="0 0 39.4 44.24"><g data-name="Layer 2"><path d="M19.7 24.13a1.15 1.15 0 0 0-1.15 1.15v13.43a3.46 3.46 0 0 1-6.91 0v-.52a1.15 1.15 0 1 0-2.3 0v.52a5.76 5.76 0 0 0 11.51 0V25.28a1.15 1.15 0 0 0-1.15-1.15zM26.25 23a1.84 1.84 0 0 1-1.31-.54c-.7-.68-2.49-1.47-5.21-1.47s-4.47.74-5.21 1.47a1.85 1.85 0 0 1-2.61 0 8.08 8.08 0 0 0-5.21-1.47h-.22a9.78 9.78 0 0 0-4.11.9 1.65 1.65 0 0 1-.76.19A1.62 1.62 0 0 1 0 20.3 19.82 19.82 0 0 1 18.56 2.07h.19V1a1 1 0 1 1 1.9 0v1.06h.19A19.82 19.82 0 0 1 39.4 20.31a1.61 1.61 0 0 1-2.29 1.54 9.78 9.78 0 0 0-4.11-.9h-.24c-2.56 0-4.46.74-5.2 1.47a1.84 1.84 0 0 1-1.3.54M20 19a14.75 14.75 0 0 1 6.09 1.64l.1.06.1-.05A12.82 12.82 0 0 1 32.45 19h.4a12.44 12.44 0 0 1 4.27.76l.31.11v-.33A17.93 17.93 0 0 0 22.62 4.17a20.86 20.86 0 0 0-2.92-.34 18.67 18.67 0 0 0-2.05.22l-.86.12A17.93 17.93 0 0 0 2 19.59v.33l.31-.11A12.43 12.43 0 0 1 6.56 19h.29a15.39 15.39 0 0 1 6.35 1.51l.1.06.1-.05a13.33 13.33 0 0 1 6-1.52h.6" fill="#42a76e"/><path d="M24.54 6.64a.48.48 0 0 0-.42.72 24.27 24.27 0 0 1 3 10.2.47.47 0 0 0 .47.44h.14a14.3 14.3 0 0 1 4.73-.83s1.1 0 1.83.07a.48.48 0 0 0 .39-.21.51.51 0 0 0 .07-.45 15.84 15.84 0 0 0-10.2-9.93m-4.85-.92h-.56a1.92 1.92 0 0 0-1.38.83A22.91 22.91 0 0 0 14 17.53a.44.44 0 0 0 .46.48h.14a14.65 14.65 0 0 1 4.8-.85h.6a16 16 0 0 1 4.83.93h.12a.45.45 0 0 0 .33-.14.45.45 0 0 0 .12-.34 22.88 22.88 0 0 0-3.74-11 1.92 1.92 0 0 0-1.43-.84h-.49m-4.99.89a16 16 0 0 0-10.07 10 .45.45 0 0 0 .02.34.46.46 0 0 0 .4.19c.6 0 1.61-.07 1.75-.08a19.07 19.07 0 0 1 4.89.78h.11a.47.47 0 0 0 .47-.44 24.32 24.32 0 0 1 3-10.15.48.48 0 0 0 0-.48c-.09-.15-.22-.21-.52-.21" fill="#84c6a1"/></g></svg>