<svg xmlns="http://www.w3.org/2000/svg" viewBox="0 0 40.05 37.84"><g data-name="Layer 2"><path d="M36.69 16.32h-8.16a4.1 4.1 0 0 0 8.15 0m-25.1 6.14H3.42a4.1 4.1 0 0 0 8.15 0" fill="#87bbe6"/><path d="M26.5 34h.34-13.37.26c-2.81 0-5 1.39-5 2.93v.88h22.8V37c0-1.58-2.21-3-5.03-3zM40 15.53C37.33 9.73 34.17 2.74 33 1c-.17-.43-4.86.94-8.61 1.87A4.36 4.36 0 0 0 20 0c-2.56.17-4.18 1.88-4.6 5L7.24 7a1 1 0 0 0-.51.51S0 21.69 0 22.09a7.5 7.5 0 1 0 15 0l-.08-.34L8.69 8.37l7.16-1.79a4.55 4.55 0 0 0 3.41 2.64V30h-2.47a3.34 3.34 0 0 0-3.18 2.86h13.07a3.31 3.31 0 0 0-3.24-2.77H21V9.22c2.47-.6 3.58-2.3 3.83-4.86l6.31-1.45-6 12.61-.08.34a7.5 7.5 0 0 0 15 0zm-27.48 5.13a5.37 5.37 0 0 1 .67 2.19v.06a1.64 1.64 0 0 1-.07.42v.06a5.73 5.73 0 0 1-11.22-.14v-.4a4 4 0 0 1 .33-1.62l.08-.17c.08-.18.15-.31.19-.4l5-10.84zm7.59-13a3 3 0 0 1-3-3 3 3 0 0 1 3-3.07 3 3 0 0 1 3 3 3.09 3.09 0 0 1-3 3.1zm18.07 9.8a5.85 5.85 0 0 1-5.6 4.23 5.71 5.71 0 0 1-5.58-4.4v-.57a4.31 4.31 0 0 1 .75-2.44l4.81-10.69 5.06 10.77c.87 1.57.88 2.14.56 3.13z" fill="#4797d9"/></g></svg>