<svg xmlns="http://www.w3.org/2000/svg" viewBox="0 0 41.32 38.37"><g data-name="Layer 2"><path d="M41 15.92l-.2-.27a10.39 10.39 0 0 0-3.07-3 7.85 7.85 0 0 0-5.09-1 9.69 9.69 0 0 0-4.93 2.66 31.16 31.16 0 0 0-2.32-2.16C21.75 9 18.58 6.13 17 2.2a10.29 10.29 0 0 1-.5-1.63.73.73 0 0 0-.34-.47c-.51-.3-.87.1-1.11.37s-.33.38-.59.69a23.37 23.37 0 0 0-4 7.49 16.26 16.26 0 0 1-3.71-2.84 10.75 10.75 0 0 1-1.07-1.33.72.72 0 0 0-.49-.31c-.58-.09-.77.42-.89.75-.06.18-.17.47-.28.86a22.59 22.59 0 0 0-.72 10.35 15.52 15.52 0 0 0 5.21 9.18c-2.28.36-4.87.66-7.86.91a.71.71 0 0 0-.6 1A17.71 17.71 0 0 0 8 36a20.19 20.19 0 0 0 9.62 2.38h1.07c5.6-.27 10.4-2.63 12.84-6.31a44.66 44.66 0 0 0 3.58-7.22c1.66-3.92 3.23-7.62 5.5-7.62a.72.72 0 0 0 .39-1.31m-7.26 8.33a43.6 43.6 0 0 1-3.46 7c-2.16 3.25-6.65 5.42-11.72 5.67-5.87.29-13.24-2-16.82-9.35 3.17-.29 5.9-.65 8.26-1.07a21.76 21.76 0 0 0 3 1.74.72.72 0 0 0 .61-1.29C8 24.22 4.86 19.82 4.46 13.86a22.15 22.15 0 0 1 .87-7.48l.38.42c3.14 3.3 7.33 4.87 12.09 6.45 3.3 1.09 7.25 2.81 8.51 6.42a.72.72 0 0 0 1.35-.47 8.6 8.6 0 0 0-.87-1.78c1.6-1.9 3.56-3.93 6.12-4.36a6.47 6.47 0 0 1 4.17.85A7.91 7.91 0 0 1 39.32 16c-2.41.9-3.87 4.35-5.53 8.26" fill="#895bb8" fill-rule="evenodd"/><path d="M33 17.5a.9.9 0 1 1 .9-.9.9.9 0 0 1-.9.9M6.35 9.67a19.05 19.05 0 0 0-.19 4.08C6.51 19 9.29 23 14.42 25.4a2.42 2.42 0 0 1-1 4.6 2.4 2.4 0 0 1-1-.23 24.27 24.27 0 0 1-2.68-1.48c-1.55.26-3.21.49-5.07.7 4.15 5.8 11 6.25 13 6.25h.88C23.06 35 27 33.11 28.91 30.3a42.44 42.44 0 0 0 3.31-6.71c1.4-3.31 2.62-6.18 4.49-7.91a2.82 2.82 0 0 0-.42-.29 5.28 5.28 0 0 0-2.49-.72 3.68 3.68 0 0 0-.59 0c-1.76.29-3.24 1.69-4.34 2.9a10.38 10.38 0 0 1 .41 1 2.42 2.42 0 0 1-4.56 1.6c-1-2.91-4.51-4.4-7.44-5.37-4.13-1.37-7.81-2.7-10.93-5.18" fill="#b294d1"/></g></svg>