<svg xmlns="http://www.w3.org/2000/svg" viewBox="0 0 18 23"><path d="M9.378.844c1.14 0 2.2.196 3.183.589.983.393 1.805.917 2.464 1.572a7.287 7.287 0 0 1 1.553 2.266 6.53 6.53 0 0 1 .562 2.649c0 1.606-.274 3.052-.824 4.337-.547 1.286-1.326 2.298-2.333 3.034-1.008.736-2.153 1.103-3.439 1.103a3.903 3.903 0 0 1-1.828-.441c-.565-.294-.96-.651-1.182-1.073-.466 1.893-.754 3.022-.865 3.386-.152.581-.416 1.21-.787 1.882-.372.673-.669 1.163-.891 1.472-.222.308-.395.536-.521.683-.055.063-.116.086-.182.069-.065-.018-.106-.058-.12-.12l-.036-.295a14.167 14.167 0 0 1-.12-1.405 19.694 19.694 0 0 1-.015-.962c.003-.308.021-.648.057-1.019.034-.371.09-.716.167-1.03l1.552-6.729c-.243-.533-.364-1.188-.364-1.967 0-.918.226-1.68.675-2.286.452-.606 1.009-.91 1.668-.91.536 0 .945.173 1.23.521.285.346.428.79.428 1.33 0 .33-.063.732-.183 1.21-.121.475-.281 1.03-.479 1.666a25.35 25.35 0 0 0-.434 1.507c-.145.654-.017 1.215.38 1.689.401.472.927.709 1.58.709.757 0 1.433-.302 2.027-.905.594-.603 1.05-1.401 1.37-2.397.32-.994.48-2.089.48-3.28 0-1.402-.449-2.543-1.345-3.422-.896-.88-2.143-1.319-3.741-1.319-.904 0-1.74.162-2.511.483-.77.323-1.412.757-1.922 1.304a6.008 6.008 0 0 0-1.194 1.888 5.955 5.955 0 0 0-.426 2.234c0 .967.27 1.784.812 2.45.11.14.178.249.198.326.021.077.014.192-.02.346a22.67 22.67 0 0 1-.25.989c-.036.161-.109.27-.22.325-.111.057-.243.057-.396 0-.82-.35-1.44-.95-1.865-1.798C.848 10.658.636 9.68.636 8.573c0-.716.114-1.432.343-2.152a7.543 7.543 0 0 1 1.064-2.087 8.302 8.302 0 0 1 1.73-1.781c.674-.515 1.493-.928 2.463-1.24C7.205 1 8.252.844 9.378.844"/></svg>