<svg xmlns="http://www.w3.org/2000/svg" viewBox="0 0 53 49"><g fill="none" fill-rule="evenodd"><path fill="#FFF" d="M26.361 5.785C43.436-6.01 56.632 14.19 48.797 25.174c-1.023 1.433-1.209 3.428-2.227 5.027-1.562 2.45-4.049 4.521-6.433 6.515-6.394 5.348-12.92 10.641-12.92 10.641S16.246 38.481 7.224 29.46C-6.633 15.6 8.296-6.835 26.36 5.785"/><path fill="#42A76E" d="M26.596 48.689a5.73 5.73 0 0 1-1.793-.23c-1.638-.488-2.702-1.577-3.337-3.418-1.433-.236-2.725-.988-3.481-1.64-.82-.708-1.48-1.848-1.76-3.028a5.314 5.314 0 0 1-2.967-1.35c-.795-.686-1.407-1.75-1.666-2.885a5.708 5.708 0 0 1-2.897-1.363c-1.186-1.04-1.915-2.501-2.015-4.03C4.011 28.282 1.947 25 1.005 21.716c-1.63-5.67-.84-10.671 2.35-14.868C6.247 3.01 10.707.719 15.59.56a16.79 16.79 0 0 1 8.187 1.86c.738.379 1.89 1.161 2.543 1.617 2.033-1.69 4.538-2.807 7.45-3.327a16.982 16.982 0 0 1 2.127-.205 15.799 15.799 0 0 1 9.965 3.086c3.536 2.594 5.931 6.552 6.567 10.857.684 4.469-.583 9.192-3.477 12.985.182.837.336 2.557-.95 4.004-.862.973-2.034 1.57-3.404 1.744-.01 1.227-.485 2.466-1.284 3.307-.745.781-1.946 1.34-3.139 1.486a4.581 4.581 0 0 1-1.83 3.53c-.639.527-1.57.842-2.605.875a5.945 5.945 0 0 1-1.365-.117c-.833 1.38-2.358 2.983-3.893 4.515-.234.233-.374.373-.452.458-.966.914-2.146 1.412-3.434 1.453zm-2.304-4.702c.396 1.2.895 1.443 1.373 1.587.068.021.406.119.836.106a2.064 2.064 0 0 0 1.394-.57c.013-.02.208-.217.46-.466 2.946-2.943 3.543-4.007 3.662-4.333-.068-.342-.266-1.139-.71-1.648-.237-.27-.875-.652-1.411-.634a.732.732 0 0 0-.347.091l-5.257 5.867zm-5.176-4.51c.092.6.443 1.307.83 1.64.449.388 1.283.828 2.03.947l5.225-5.806c.054-.639-.021-1.423-.387-1.828-.344-.38-.89-.562-1.625-.54a4.035 4.035 0 0 0-.582.061l-5.491 5.526zm15.75-.198c.232.057.5.086.763.077.448-.016.732-.123.838-.21.864-.663.727-1.601.594-2.056L26.606 27.046a1.508 1.508 0 0 1-.041-2.129 1.496 1.496 0 0 1 1.036-.45c.409-.013.806.136 1.09.41L39.208 34.97c.021 0 .189.043.427.035.626-.02 1.269-.356 1.493-.588.397-.417.622-1.39.316-1.856l-10.305-9.73a1.503 1.503 0 0 1-.057-2.127 1.51 1.51 0 0 1 1.045-.46c.406-.012.8.133 1.081.401l10.107 9.56c.16.014.355.028.562.022.805-.028 1.436-.29 1.87-.784.425-.478.318-1.155.24-1.457L31.917 14.57c-1.137 1.19-3.795 3.963-4.917 5.08-1.611 1.603-3.652 2.522-5.742 2.59-1.753.056-3.385-.485-4.723-1.567-1.07-.862-1.628-1.888-1.657-3.054-.046-1.905 1.416-3.263 1.584-3.41l7.674-8.02c-.75-.512-1.37-.903-1.736-1.092a13.777 13.777 0 0 0-6.714-1.525C11.717 3.7 8.096 5.558 5.75 8.67c-2.621 3.449-3.229 7.443-1.855 12.222.712 2.49 2.25 5.043 4.24 7.062l4.432-4.58.109-.096c.802-.662 1.93-1.078 3.009-1.114.988-.031 2.43.229 3.688 1.644.712.8 1.135 1.69 1.263 2.656a4.05 4.05 0 0 1 .307-.018c1.121-.037 2.139.338 2.944 1.086 1.148 1.06 1.515 2.346 1.6 3.35 1.46.036 2.684.564 3.561 1.533.613.682.989 1.559 1.122 2.61 1.419.081 2.71.865 3.403 1.657.72.825 1.098 1.832 1.293 2.597zM14.49 35.221c.077.599.382 1.22.772 1.556.442.409 1.05.632 1.679.621l5.53-5.564c.07-.476.095-1.425-.628-2.097-.217-.2-.477-.289-.821-.276-.614.019-1.218.344-1.39.445l-5.142 5.315zm-4.794-4.557c.077.7.427 1.364.978 1.845.472.414 1.051.652 1.607.666l5.279-5.439c.091-.21.37-1.02-.437-1.932-.39-.44-.829-.646-1.337-.628a2.28 2.28 0 0 0-1.17.401l-4.92 5.087zm22.128-19.725c.401-.012.784.136 1.075.41l14.186 13.524c2.021-3 2.884-6.61 2.37-9.975-.52-3.52-2.48-6.759-5.375-8.883-2.355-1.73-5.16-2.596-8.11-2.5-.567.017-1.14.071-1.7.162-2.754.493-5.035 1.622-6.775 3.357l-8.947 9.337c-.335.315-.675.809-.665 1.176.01.295.301.592.541.788a4.07 4.07 0 0 0 2.734.894c1.33-.042 2.651-.65 3.719-1.715 1.447-1.436 5.436-5.624 5.886-6.095.285-.3.656-.468 1.056-.48h.005z"/></g></svg>