<svg xmlns="http://www.w3.org/2000/svg" viewBox="0 0 35.07 41.49"><g data-name="Layer 2"><path d="M17.53 41.49a3 3 0 0 1-1-.18C-.37 35.45-.14 21.79 0 11.81V7.88a2 2 0 0 1 2-2h1c5.26 0 9.07-1.43 12.36-4.64l.67-.67a2.07 2.07 0 0 1 2.83 0l.68.67c3.4 3.19 7.22 4.63 12.46 4.63h1a2 2 0 0 1 2 2v4.01c.17 10 .41 23.58-16.51 29.42a2.9 2.9 0 0 1-1 .18M2.12 7.66a.23.23 0 0 0-.24.24v3.95c-.16 9.45-.39 22.36 15.29 27.79a1.09 1.09 0 0 0 .79 0c15.69-5.42 15.48-17.77 15.31-27.7V7.9a.23.23 0 0 0-.24-.24H32c-5.72 0-9.92-1.59-13.61-5.14l-.69-.69a.18.18 0 0 0-.29 0l-.68.68C13.06 6.08 8.86 7.66 3.09 7.66h-1" fill="#eb7855"/><path d="M21.28 19.49h-2.65v-2.66a1.1 1.1 0 0 0-2.2 0v2.65h-2.65a1.1 1.1 0 0 0 0 2.2h2.65v2.65a1.1 1.1 0 0 0 2.2 0v-2.65h2.65a1.1 1.1 0 0 0 0-2.2z" fill="#eb7855"/><path d="M17.56 28.76a8 8 0 1 1 8-8 8 8 0 0 1-8 8m0-24.19A20 20 0 0 1 3.95 9.72v2.15c-.16 9.21-.36 20.67 13.62 25.68 14-5 13.79-16.41 13.63-25.61V9.72a20.13 20.13 0 0 1-13.66-5.14" fill="#f3ae99"/></g></svg>