<svg xmlns="http://www.w3.org/2000/svg" viewBox="0 0 23 21"><g fill="#3F474E" fill-rule="evenodd"><path d="M16.388.868H5.709a.737.737 0 0 0-.738.738v2.76H2.758A2.705 2.705 0 0 0 .053 7.073v6.837a2.705 2.705 0 0 0 2.705 2.705h1.967v3.352c0 .408.331.737.738.737h11.17a.737.737 0 0 0 .738-.737v-3.349h1.968a2.705 2.705 0 0 0 2.705-2.705v-6.84a2.705 2.705 0 0 0-2.705-2.705h-2.214v-2.76a.737.737 0 0 0-.737-.739zM6.447 2.344h9.203v2.023H6.447V2.344zM6.2 19.232v-6.13h9.695v6.126l-9.695.004zm14.358-12.16v6.837a1.229 1.229 0 0 1-1.23 1.23h-1.967v-2.036h1.064a.738.738 0 0 0 0-1.476H3.671a.737.737 0 1 0 0 1.476h1.055v2.038H2.758a1.23 1.23 0 0 1-1.23-1.23V7.073c0-.679.551-1.23 1.23-1.23H19.33a1.23 1.23 0 0 1 1.23 1.23z"/><path d="M15.817 8.385h2.705a.737.737 0 1 0 0-1.475h-2.705a.738.738 0 0 0 0 1.475z"/></g></svg>