<svg xmlns="http://www.w3.org/2000/svg" viewBox="0 0 28 28"><path d="M7.3 27h13.4a5.3 5.3 0 0 0 5.3-5.3V9.2a5.5 5.5 0 0 0-3.4-4.9v1.5c0 .1-.1.3-.1.4a2.9 2.9 0 0 1-.2.9 3.3 3.3 0 0 1-3 2 3.4 3.4 0 0 1-3.2-2.5v-.4a.6.6 0 0 1-.1-.4V4h-4v1.8a.6.6 0 0 1-.1.4v.4a3.4 3.4 0 0 1-3.2 2.5 3.3 3.3 0 0 1-3-2 2.9 2.9 0 0 1-.2-.9c0-.1-.1-.3-.1-.4V4.3A5.5 5.5 0 0 0 2 9.2v12.5A5.3 5.3 0 0 0 7.3 27zM4.6 14h18.8v7.7a2.8 2.8 0 0 1-2.7 2.7H7.3a2.8 2.8 0 0 1-2.7-2.7z"/><path d="M7.6 6.6a1.6 1.6 0 0 0 1.1.5 1.6 1.6 0 0 0 1.1-.5c0-.2.1-.3.1-.4a.6.6 0 0 0 .1-.4V2.3a1.3 1.3 0 0 0-2.6 0v3.5a.6.6 0 0 0 .1.4c0 .1.1.2.1.4m10.6 0a1.5 1.5 0 0 0 2.2 0c0-.2.1-.3.1-.4a.6.6 0 0 0 .1-.4V2.3a1.3 1.3 0 0 0-2.6 0v3.5a.6.6 0 0 0 .1.4.8.8 0 0 0 .1.4"/></svg>