<svg xmlns="http://www.w3.org/2000/svg" xmlns:xlink="http://www.w3.org/1999/xlink" viewBox="0 0 229 29"><defs><path id="a" d="M.281.558h19.983V28.76H.281z"/><path id="c" d="M.739.558h17.763V28.76H.739z"/><path id="e" d="M.244.558h19.984V28.76H.244z"/><path id="g" d="M.702.558h17.763V28.76H.702z"/><path id="i" d="M.195.558h17.764V28.76H.195z"/><path id="k" d="M.031.558h17.762V28.76H.031z"/></defs><g fill="none" fill-rule="evenodd"><g transform="translate(26.363 -.259)"><mask id="b" fill="#fff"><use xlink:href="#a"/></mask><path fill="#FFF" d="M4.722 21.71c0 2.014 1.11 3.021 3.33 3.021h4.442c2.22 0 3.33-1.007 3.33-3.021v-5.036h-6.66v-4.03h11.1v9.066c0 4.7-2.59 7.05-7.77 7.05H8.053c-5.18 0-7.772-2.35-7.772-7.05V7.61C.281 2.908 2.872.557 8.053.557h12.211v4.028H8.053c-2.22 0-3.33 1.009-3.33 3.023v14.1z" mask="url(#b)"/></g><g transform="translate(50.33 -.259)"><mask id="d" fill="#fff"><use xlink:href="#c"/></mask><path fill="#FFF" mask="url(#d)" d="M18.502 12.645v4.029H5.179v8.057h13.323v4.029H.739V.558h17.763v4.028H5.179v8.059z"/></g><g transform="translate(117.435 -.259)"><mask id="f" fill="#fff"><use xlink:href="#e"/></mask><path fill="#FFF" d="M4.685 4.586v8.059h7.771c2.22 0 3.33-1.008 3.33-3.022V7.61c0-2.014-1.11-3.023-3.33-3.023H4.685zm0 12.088V28.76H.244V.558h12.212c5.181 0 7.772 2.35 7.772 7.05v2.015c0 4.7-2.59 7.05-7.772 7.05H4.685z" mask="url(#f)"/></g><g transform="translate(141.402 -.259)"><mask id="h" fill="#fff"><use xlink:href="#g"/></mask><path fill="#FFF" mask="url(#h)" d="M18.465 12.645v4.029H5.142v8.057h13.323v4.029H.702V.558h17.763v4.028H5.142v8.059z"/></g><path fill="#FFF" d="M169.947 18.429h8.705l-4.353-14.101-4.352 14.101zm16.564 10.072h-4.44l-2.065-6.043h-11.413l-2.065 6.043h-4.441L171.412.299h5.774l9.325 28.202z"/><g transform="translate(188.536 -.259)"><mask id="j" fill="#fff"><use xlink:href="#i"/></mask><path fill="#FFF" d="M4.636 21.71c0 2.014 1.11 3.021 3.331 3.021h9.992v4.029H7.967c-5.18 0-7.772-2.35-7.772-7.05V7.61C.195 2.908 2.786.557 7.967.557h9.992v4.028H7.967c-2.22 0-3.33 1.009-3.33 3.023v14.1z" mask="url(#j)"/></g><g transform="translate(210.905 -.259)"><mask id="l" fill="#fff"><use xlink:href="#k"/></mask><path fill="#FFF" mask="url(#l)" d="M17.794 12.645v4.029H4.471v8.057h13.323v4.029H.031V.558h17.763v4.028H4.471v8.059z"/></g><path fill="#FFF" d="M82.119 18.136l3.447-.476-1.723-5.943-1.724 6.419zm6.56 3.523l-1.758.238-.818-2.543-4.52.62-.819 2.755-1.758.238L82.7 10.114l2.287-.327 3.694 11.872zm2.639-12.778l5.277 8.146V8.126l1.76-.251V20.35l-1.76.238-5.277-8.158v8.871l-1.759.238V9.133zm14.952.996c0-.896-.44-1.281-1.32-1.156l-3.078.437v8.93l3.078-.42c.88-.12 1.32-.628 1.32-1.523V9.877zm-1.32-2.946c2.052-.294 3.078.606 3.078 2.697v6.275c0 2.092-1.026 3.277-3.078 3.555l-4.837.654V7.622l4.837-.69zm3.792-2.413l-30.45 4.375V7.379l30.45-4.402zm0 17.391l-30.45 4.073v-1.513l30.45-4.102zM9.326.299L0 28.5h4.44l2.065-6.044H17.92l2.065 6.044h4.44L15.098.299H9.326zm2.886 4.029l4.352 14.1H7.86l4.352-14.1z"/></g></svg>