<svg xmlns="http://www.w3.org/2000/svg" xmlns:xlink="http://www.w3.org/1999/xlink" viewBox="0 0 79 45"><defs><path id="a" d="M.11.108h17.23v19.894H.11z"/><path id="c" d="M.209.108h12.53v19.894H.209z"/></defs><g fill="none" fill-rule="evenodd"><path fill="#42A76E" d="M22.428 15.36c0 1.42.783 2.131 2.35 2.131h3.132c1.566 0 2.35-.71 2.35-2.131v-3.553h-4.7V8.965h7.832v6.395c0 3.315-1.827 4.973-5.482 4.973h-3.132c-3.655 0-5.483-1.658-5.483-4.973V5.413c0-3.316 1.828-4.974 5.483-4.974h8.614V3.28h-8.614c-1.567 0-2.35.71-2.35 2.132v9.947zm26.627-6.395v2.842h-9.397v5.684h9.397v2.842h-12.53V.439h12.53v2.842h-9.397v5.684zM3.725 27.762v5.684h5.482c1.566 0 2.35-.71 2.35-2.131v-1.421c0-1.421-.784-2.132-2.35-2.132H3.725zm0 8.527v8.525H.593V24.92h8.614c3.655 0 5.482 1.658 5.482 4.974v1.42c0 3.317-1.827 4.975-5.482 4.975H3.725zm26.627-2.843v2.843h-9.398v5.683h9.398v2.842h-12.53V24.921h12.53v2.842h-9.398v5.683z"/><g transform="translate(31.808 24.812)"><mask id="b" fill="#fff"><use xlink:href="#a"/></mask><path fill="#42A76E" d="M5.655 12.897h6.14L8.725 2.95l-3.07 9.947zm11.685 7.105h-3.133L12.75 15.74H4.7l-1.457 4.263H.11L6.69.108h4.073l6.578 19.894z" mask="url(#b)"/></g><g transform="translate(50.505 24.812)"><mask id="d" fill="#fff"><use xlink:href="#c"/></mask><path fill="#42A76E" d="M3.34 15.029c0 1.42.784 2.13 2.35 2.13h7.049v2.843H5.69c-3.654 0-5.48-1.658-5.48-4.972V5.082C.209 1.766 2.036.108 5.69.108h7.049V2.95H5.69c-1.566 0-2.35.71-2.35 2.132v9.947z" mask="url(#d)"/></g><path fill="#42A76E" d="M78.907 33.446v2.843h-9.398v5.683h9.398v2.842h-12.53V24.921h12.53v2.842h-9.398v5.683zM58.428 13.021l2.432-.335-1.216-4.193-1.216 4.528zm4.628 2.485l-1.24.169-.577-1.794-3.19.437-.576 1.944-1.241.168 2.605-9.068 1.613-.23 2.606 8.374zm1.861-9.013l3.723 5.747V5.96l1.241-.177v8.8l-1.241.168-3.723-5.755v6.259l-1.241.168V6.67zm10.547.702c0-.632-.31-.903-.93-.815l-2.172.308v6.3l2.171-.297c.62-.084.931-.442.931-1.074V7.195zm-.93-2.077c1.447-.207 2.171.427 2.171 1.902v4.426c0 1.476-.724 2.312-2.172 2.508l-3.411.461v-8.81l3.411-.487zm2.675-1.702L55.728 6.501V5.434l21.481-3.106zm0 12.267l-21.481 2.873v-1.067l21.481-2.894zM7.078.439L.5 20.333h3.133l1.456-4.263h8.051l1.457 4.263h3.132L11.151.439H7.078zM9.115 3.28l3.07 9.947h-6.14l3.07-9.947z"/></g></svg>